<mxfile host="app.diagrams.net" modified="2023-07-03T14:08:41.314Z" agent="Mozilla/5.0 (Windows NT 10.0; Win64; x64) AppleWebKit/537.36 (KHTML, like Gecko) Chrome/114.0.0.0 Safari/537.36" etag="AUewgyHzGMbVa9L6ZAVL" version="21.3.8" type="github">
  <diagram name="第 1 页" id="c9SsvRikcoR5dCBcgI8Z">
    <mxGraphModel dx="1221" dy="743" grid="1" gridSize="10" guides="1" tooltips="1" connect="1" arrows="1" fold="1" page="1" pageScale="1" pageWidth="827" pageHeight="1169" math="0" shadow="0">
      <root>
        <mxCell id="0" />
        <mxCell id="1" parent="0" />
        <mxCell id="zMoHnm3K_qZeTz7e5QDK-2" value="" style="shape=image;verticalLabelPosition=bottom;labelBackgroundColor=default;verticalAlign=top;aspect=fixed;imageAspect=0;image=data:image/png,iVBORw0KGgoAAAANSUhEUgAABL4AAAOwCAYAAAAwT73yAAAAAXNSR0IArs4c6QAAAARnQU1BAACxjwv8YQUAAAAJcEhZcwAAFiUAABYlAUlSJPAAAJlQSURBVHhe7P1NaGTpnh/4//THMD3gRQ/M4noxuBIiEjtHDNW76dAma+WryEXnLCbpXikTQ4S9krwQTUNCVYEW3WhxIxaGK20ytXKT2NycgYyYXZYXEnfXd0AkTUZAJbNxGYNpg8EXZmz9z3POCSlepdBLSspTn0/d52bEiRPnLeIoQl/9nuesnGQCAAAAACrm/1f+CwAAAACVIvgCAAAAoJIEXwAAAABUkjG+ALhVP/30U/z1X/91/N3f/V05BQCu7vnz5/HVV1+V9wBgkuALgFv1F3/xF/GXf/mX5T0AuJ5f/vKX0e/3y3sAMEnwBcCtevHiRbx+/Tr/C/0//If/sJwKAJfzn/7Tf4pOpxOPHz+O9+/fl1MBYJLgC4BbNQq+0i8p6ZcVALiKT58+xYMHDwRfAJzL4PYAAAAAVJLgCwAAAIBKEnwBAAAAUEmCLwAAAAAqSfAFAAAAQCUJvgAAAACoJMEXAAAAAJUk+AIAAACgkgRfAAAAAFSS4AsAAACAShJ8AQAAAFBJgi8AAAAAKknwBQAwY5j9BwDAl27lJFPeBoDP7sWLF/H69et4//59PH78uJwK98iwG+2Nrdhf7cXJ3no58TPrZ+v8+DC2N9ejVk7KpW3Z/RDxaDv2NiceuVi/HWs7x+Wdq1iNZwd7cdnVwm359OlTPHjwIP8sSZ8pADCPii8A4IswHPaj3+9n/w5vpmXL6mf/zqg9iUfp3/1mtPv5lFPD7lqsrKxc3KafeIH+263Y32pGffp5gw+xv78f+x8G5YTLOTo6iqPs39XV1amWP5j+N+ex/MHssXNCs357/n5fo13ykAEALEXFFwC3SsUXV9Vvr0Rzv7xzU1oLqrpSsJOvrBW9k70YzZGCr/rWUTQarcjzoRnHcbx/FEeLljtXP9orzdifWldutB2XWl7p3OeW62x0YnC4OVlllimOdSM6g8P5FV9LVJOl0C3XaESjuHWu1ZeHcVsFdlSDii8AliH4AuBWCb64qlTxNbha4VPmY+w0t+IoGtHpvYyH5dSo12O9Ni/ZGUa3vRuxPdXVrwyTWr2TBSFNGShdIqgahWlzA6pzw6th6iEZ64v6Io49d7BdLyeODGK3XgRfvYMnMfPobv384OtC2fFbq8fW0ZwwD26I4AuAZQi+ALhVgi/uxjlVVaXU/XGhWq2oipoKvoowrh71evZ4McMlg6/Rdi0Imc4Jvk4DswVVW6fPvbJrBF/DbqzVty5Z+QaXI/gCYBnG+AIAyKQqp3p9fttdMP5UbfA2ms1snkUzXGDY3Yk8mmo8iyeXCZiG3dhIoVem9fLJbOg1LlV8DQZTrRet9Fiq+Jp5bBC9/MGrG757U1TXbQu9AIC7JfgCAL44w2472u3zW7d/TgXXHPXtXvR6461ThEPZ/z+9IL9pPJruLLiEsfDqUob9aKdqquxmozOIvfWLE7NaqlibaOUDmfrMY8smcKk74/yB6vNKtGwLt+rzH59oRrUHAD4jwRcA8MUZfNgvrnZ4TnvzsZx5SbXaeqyvj7X4UFRjtZ5eOEbV6sPLlGslw+huFOHV5aTQK3WNLEKvw2X6IR7vzAkGdyIfmv7oTezOPNaOC8atn9KIRqsVrbIVA9k3Tu8XrRzgvjE+fZkh7wEArkfwBQB8odIYVCeRhisdb4NOEahcPowaN4zuTh4vfZbuesPuRuRFUUte8TCXKr3y8cCyp7V6S4VejXL5x8fHUy1/MP1vzmP5g9ljcy9bOaYWD/NZVuPl3l7s5W07nqUVNp7F9um01F5mc6VZX55N2362/L4DAFyR4AsAYFp/twimWi/PHdx9+PFSpVGFfrvsCtiIzkEZCF3keCfWRpVeKfRaZsD49b04PDyc3w6eZTOsxrOXB/Mfz9vUFS0BAL5Agi8AgAn9aOdXQ0zVXvXod/tx/mhhjbjMEF+jsKzVu8QVE4+OTsf0Wir0Os/oiotH+7G1sxuXHAptOTNdKMuulQAAt0zwBQAwpt8uKquSD7sb0dxqxka3SIemK7wGH1IctRqX6VVZ2zzMr5x4cX41jP7b0foa0eotOabXQtnyumuxMhoYv9WKxtF+NOtr0e4PLwj3LutoqvtkEdwBANw2wRcAQGnYXYu82Kv0aPtlfmXHo63dmL324DCu0tMxufDKiWk8r7V6ti1lXNR6udTVG+cbZotrx9pKtrzUxbLRit7gJA739uJw0ItW4yj2m/Wor9xgANboxMFEt8lsPeVDAAC3SfAFAHyhjuLN7nh3uqLtvrlabVG/vVaMvdXoRK8cID9iPbbz28fxNu8TuJoPGJ8bvotiVfuxs7YW7bwqrB6P0hULL9P3cUKqymoX43mlTbnO6O/DfnSzfUqBV725nx2tomrs5HAvTjO02nrsHQ6y/U1XYxwFYCux1u5Gf3izNWAAAHdB8AUAfLGO9vdjf7pdKfdK1Vvpia3oHW7GeGxV2zyI3uAwr7iqbRYDxqduisN3b/LueykIOzo6KsewqsVmumLhVbokDrvRzquyypAqjef18vJ1UqlqbW1lJVbqzdjKDsZRtn2tXi86ndV4lB4vZhtTi/XN7XjZObvC5NH+VjTr9VhJy8lDvYvGOZtijC8A4J4QfAEAX6hGdAYncXIy2QZltdbxx8tENbXYPOjF4GQvZofeqp1VSJ3qx25x2cd4+XKp6zJerLZZVJflXREPrxaeZWqbL2M1LSZfTqrwSkFdPeJNGsz+XTnXrI9v0jhcxTEd9DrRGpWbZbv56Ml6dhQuwxhfAMD9IPgCACqm6I546Tiqtny4M+zu5APgNzrbc4Kyq0sD3090RbyS1H3xJA7z5YwWNIhiHP6HF+xjMVB/bX0zW0a2LSlIHBwsf/XJEWN8AQD3hOALAPji1B+1otV6Fg/L++NOuyNe6wqI5xh2Y2NU7bVwHWmsrn589mGysm1ZK8cXO3dVw495V8PGFcYeu3AgfgCAe0zwBQB8cVK4tbe3ec3KqKvoR7u+lXfba/XmdYscGcTbrWbU6+05V4O8QYMP+fhi+28Wd2FMRuORraZyLgCAnxHBFwDAMob9aK81iy6OrV4+wP1CZYVVNB5NDJR/afVHxYDz+2+jOxzGcKL1o7uTtiZzXhfGUYVaoxPbN9kv89R+NNfW8sqztbWNyIvhjrZi43RaasVxi/3m2bSNIkAEAPicBF8AQCUN+93iioJra7GyUgYvV5W6FNazZRSlXnE4nnqV4dTRVnkVxPyKikWo03j25JKDwk+pPSzHKtuPrXo96hOtWYRMaUD6BYlWOgZr+bZk8xxsXm9bFmpEY3U1VsvWaqVuqK3T+0Urpk1OLwfPBwD4jFZO0qilAHBLXrx4Ea9fv47379/H48ePy6nwGeRh1XhVUSNanYOlxv4adtcie2p0BoexWRtGd62eh0yp0msi9CqlgGn37YfyXunR02xdF5VY9aOdQrlGJwaHC4KpVNm1+zamll549CiePlnQ5XNs/1u9k/Mr1GK0j+mqjmmfy8nnGj2nFb25V8O8wGj7smN6cv7GwVyfPn2KBw8e5J8l6TMFAOYRfAFwqwRf3J5hdNu7eQD18El97AqHF0vdCAeDiHp9PUZPS90LP8tA76nbYtRO13Ojsv3ox/pSY6EN+9k+Z//W15e/uiXcJcEXAMsQfAFwqwRfANwEwRcAyzDGFwAAAACVJPgCAAAAoJIEXwAAAABUkuALAAAAgEoSfAEAAABQSYIvAAAAACpJ8AUAAABAJQm+AAAAAKgkwRcAAAAAlST4AgAAAKCSBF8AAAAAVJLgCwAAAIBKEnwBAAAAUEkrJ5nyNgB8di9evIjXr1/H119/HX/4h39YTgWAy/n9738fv/3tb+Px48fx/v37cioATBJ8AXCr/vIv/zL+4i/+orwHANfz/PnzePXqVXkPACYJvgC4db/73e/i7/7u78p7wLT/+B//Y/zZn/1Z/Mt/+S+jVquVU4F5UsUXACwi+AIAuGf+xb/4F9HpdOLp06fxm9/8ppwKAMBlCb4AAO6Rn376KR48eJCPX5T8zd/8TT4mHgAAl+eqjgAA98hf/dVfnYZeyffff1/eAgDgslR8AQDcE9PVXiOqvgAArkbFFwDAPTFd7TWi6gsA4GpUfAEA3AOLqr1GVH0BAFyeii8AgHvg17/+9cLQK1H1BQBweSq+AADuWAq8UrVXqvo6j6ovAIDLUfEFAHDHUrXXRaFXouoLAOByVHwBANyhZau9RlR9AQAsT8UXAMAdWrbaa0TVFwDA8lR8AQDckctWe42o+gIAWI7gCwDgHlpZWQlf0wAArkdXRwAAAAAqSfAFAAAAQCUJvgAAAACoJMEXAAAAAJUk+AIAAACgkgRfAAAAAFSS4AsAAACAShJ8AQAAAFBJgi8AAAAAKknwBQAAAEAlCb4AAAAAqCTBFwAAAACVJPgCAAAAoJIEXwAAAABUkuALAAAAgEoSfAEAAABQSYIvAAAAACpJ8AUAAABAJQm+AAAAAKgkwRcAAAAAlST4AgAAAKCSBF8AAAAAVJLgCwAAAIBKEnwBAAAAUEmCLwAAAAAqSfAFAAAAQCUJvgAAAACoJMEXAAAAAJW0cpIpbwMAcIt++umn+PWvf13em/T999/Ht99+W96b9Kd/+qfxj/7RPyrvAQCwiOALAOAO/dEf/VH87ne/K+9d7Be/+EX8+OOP8Qd/8AflFAAAFtHVEQDgDi2q6lrkz//8z4VeAABLUvEFAHDHlq36Uu0FAHA5Kr4AAO7YslVfqr0AAC5HxRcAwD1wUdVXCrz+3b/7d/GHf/iH5RQAAC6i4gsA4B64qOrrn/2zfyb0AgC4JBVfAAD3xKKqr1Ttlcb2SmN8AQCwPBVfAAD3xKKqr1TtJfQCALg8FV8AAPfE73//+3jw4EH89NNP5RTVXgAA16HiCwDgnkghV7py4zjVXgAAV6fiCwDgHhmv+lLtBQBwPSq+AADukfGqL9VeAADXo+ILgFuVqlj++q//Ov7u7/6unAJM+//+v/8v/uW//JfxT//pP42///f/fjkVmOf58+fx1VdflfcAYJLgC4Bb9Rd/8Rfxl3/5l+U9ALieX/7yl9Hv98t7ADBJ8AXArXrx4kW8fv06/wv9P/yH/7CcCgCX85/+03+KTqcTjx8/jvfv35dTAWCS4AuAWzUKvtIvKemXFQC4ik+fPuUXghB8AXAeg9sDAAAAUEmCLwAAAAAqSfAFAAAAQCUJvgAAAACoJMEXAAAAAJUk+AIAAACgkgRfAAAAAFSS4AsAAACAShJ8AQAAAFBJgi8AAAAAKknwBQBU33CY/W9Y3pmWHitvnpo37QYM+9Hvf44F36xhuZ3Flmb/9rP7cw5Imu+zHCcAgBsi+AIAKq+/W496fSO680Ka4bvYqK/Eylo7+ul+vx1rK9n8G90y+LlAHgqVt8/Vj3a9Gc3mbrGeW9Zvr8Xa2lq0l9jYwW62nTvvRvdit5nd3x2U98+k+erZsWvfxQ4BACxB8AUA/LwNPsRR+nf1aaynf9e341kj+/doKzbmJmXj+tFOoVB9Ldrd/gVB2Xpsd9KC92PnwuXOk61rJQV0RYC1uJUB3pT6o2yXjtKe1ooJ44bdbPu70U8hXtY+HqeJH+Jdfv9jRNrs44/F4912dPPwbFjM1+jEdn7gAADun5WTTHkbAD67Fy9exOvXr+P9+/fx+PHjcip8Xv32SjT3G9EZHMbmRO4zjO5aPbaOph4bdmOt/iZWewextz4nKBo37Ed7oxn7KVNqtKJ3sBf1QT9m66MyH9/GztZ+HEW2vt7LeFhOnlSP9bnrzNazthN5JjXXUeS5VmTbcLJXhHhjht21qG8dRat3ku1TOXEkVbntnC25CMiy3WmkxGv2fjw7iMMn77JjtJWHhqfTT6Vtmb8dcFM+ffoUDx48yD9L0mcKAMwj+ALgVgm+uAsLg6884NqKo1YvTmbSoGlpzKvavHqpzDBbx0a2jtU87Il8fdnkRiMvllpOGVw1OjE43FywnvOkirBm7F8l+BqTxkIb7NajeTzajjIcXJ08RqPlNVqtWC2nxfF+HgAW0x7F9t5V9gOWI/gCYBm6OgIAP1v93aJiKfabsZK6EZ7b6lFfOJhVLdb3DmMw2B4LnBrROTiMw8NlWy9a5TPvTL8d9Xo9mtEbC99qsXkwiMFEWtaP3a105Frxcm8v9sr2NE/ARtOEXgDA3RN8AQCVlKq8RuNh5dVXcRRbG+l+Nj0FWMNu7OTTU2FWK1qts1ZUaTUmprVaF1dv1WpfctSTxisrD8j+TmyMjxu2sXF2v92NbjtVluUzRvM0DByN+fUo6sUEAIA7J/gCACpqUVBVTD+t9sqsvjyrWtrbKwe3bzyL7dNpqR3G4UwfwdT9cVo25VEKyp7Fw7yb4HjV2II2Co9S18jTfoOzhsNi8Pn57eM5439dJG1nEWalboqt1mqsrs621BfzKFvJk+1edDq96KXB+vebxVUd+7uRisAaz56o9AIA7g1jfAFwq4zxxV2YGeOr346VUXVTZnLcq3JMq7h4rK1inKv0/MWD4A/74wPdf4yd5lYcNTrRezk2tH29HutLVIsV+1HeWeiyY3yV+5tSwFT5Nid4e7S9lx23+cdldGwbDQPac7uM8QXAMlR8AQA/M2dd+lIXxsIwH9S9aGcx1eB0WtFmPFyNRhzFfrMeK2vdbCmzauvrsX7aHhYDwa8+HJuWtUt1kUwB3kmkv13Ob5cNntIYXp3sWPRi8Ow49vf3xyrHivsf5l6isrC+ncYmKwbmb7SeCr0AgHtF8AUA/Mysx16vFY1WL/aeFlNScJUGdS9as6h+OtqK5um0rG28mwm2aut7cTjoRSt1jczmnxj8ftiNdrs91XaKUOl4Z85j7ejOS85uQ20z9k7LwBrxbLvs3rn9LO8WOt8whv12rGXHa1SEdrTfjLXsGMzLCAEA7oLgCwD4GRlGv9uObn1vYryuRhqvqjdqnSLIarSiczotay8XjF1VW4+9w0H0Wp3ojfchHHzIq6X294/j+HjUjopxxY6OxqZlrZzvfhhdBCANal+Og/axG2srZXfI1YdFV9F0lcvmfhzlx2kQJyeD6GQHLoVf9frYuGUAAHdI8AUA/EwcxVa9Hs2t2a57qw/Huh2uP4lH+dRH8WS8O+KCMbwKtVjf25zbza/VO4zDw1FL3QLziWPTDuMgDRJ/ofKqibnJLpjT7apqT16WId/LeJm3IvTbfvIkH/A/Xf2ys70etfWn0Wo0otXpxeBwLzbrEf3+IJ7sHcYgDw4b+XwAAHdN8AUAVFK6AmK3vRZrK2MDwpfVSZODu39u46FUOSkzHlSdM4TWHEWAd9Y1c7pt3HiXycFgEA9fduLZasSH3dQt823eZfN4qxn1dFXKbL3NZjM2shXX1jdj77C8iAAAwB1zVUcAbpWrOnI7xq5UGI18APqjfFD4qUCmvLpjqzeI7Xo5LQbxbqOZX72wd/AkRpMHg7ig6iuFWLU4Had+6sqRF5uzfVMmrxA5rbxi5KWv6jhm2I21etm9sdRojFejFYPYj67++OjR03hYXpwyhW6p8u1S4/TDNbiqIwDLUPEFAFRQLTZftoqueCeHkd081zKD2zd3Zge3n9DfzeZbi+mhrVKoliqminbW1fFs2iB6S3V1TMOJjXe9nG7lFSOvo7YZh1NXiRzvknl40MkHu288284Hv9/cPFt/rSb0AgDuH8EXAFBN63uxt7k+f0D6Kdca3D43jO5Oqu4ar5UaSYHQqJWTMmfTaqdVZdcy/FhcMbLx6OrLS1dpTIPaL2rlYPdHWxvzH0+t3T0/IAQAuEWCLwDgZ+/ag9v3d4sqsVZvphvhfnM8GGpG3vlxvzk2bS02ij6Z1zP4UMRuqw+XCvvmqj+K1dXVWH02Gtx+qj1rFRVfrWdzHsuel577qOz7CABwDwi+AACuZVTtNXUlw/qjaLVaWSsDobyl+0XL76f50r/lfNcxLC/52Hh0hXqvYT/6aaD9eBLb29ux/WS86+dYe1hEgvHo4exjT7Lnlc9No/j3++q+AIC7J/gCAIizKywOh2fDxw9Op6XWj36/P9ONb9jdKKu9Xk4OTF/bzMfB2tvbjqdxnP33NLbz+2XbfhTHR0dxtH8c8bQcM+vKpVpnVh9efiHDdzsT45ktbPng+amrY3P+42PtwjHRAABugeALAPjZW2Zw+zS92dyJdxNpTj92i9QrenMvlVhcXbK5fxRHxx9jMP7c2mYc9FLXwaN8/Str3bh6kdRoO66mtnk4MaD9wpZtb9LoDOY/Pt4ON6/e5RIA4IYIvgCAiupHe2UlVrLWzAfWWo1FxVCTV16c004HuX8ZT06XkUKtYsyuRmc7pmOvYRoofqWeh2h5UHS4GdPDhNXW9+Jw0Iv8oo550LYW3SXSr2H3bHywtH8rK+XYYdGKp/Pyt+sapq6L/ei/LbpTAgB8KQRfAEBFrcfTokAp04hWbzacOjN+5cU5bWyQ+7PsqhabB71oNVrxcqKPYgrEVqLe3I+j7LHe4CQOz+vDWFuPzcOTGBTpV7z5WEw+T+3Js2zWo+x/Y1Ve6SqUg72F+zj4cPWKsKgN4m2zmVeuJVfpTgkAcBdWTlItOgDckhcvXsTr16/j/fv38fjx43IqfB5pbK5IwVV5f0aqZBoMol5fT7PdoH50uxFPNseDsotduL2nhjHsDyLb8mzbs7vLPicVky0177TsOHV34208iqdPnsT6zR4suJJPnz7FgwcP8s+S9JkCAPMIvgC4VYIvAG6C4AuAZejqCAAAAEAlCb4AAAAAqCTBFwAAAACVJPgCAAAAoJIEXwAAAABUkuALAAAAgEoSfAEAAABQSYIvAAAAACpJ8AUAAABAJQm+AAAAAKgkwRcAAAAAlbRykilvA8Bn97//7/97/Ot//a/jV7/6VXz99dflVAC4nJ9++in+7M/+LP8s+Zu/+ZtyKgBMEnwBcKv+5//5f44PHz6U9wDgev7H//F/jP/wH/5DeQ8AJgm+ALhVf/InfxL/5//5f8Y/+Sf/JH7xi1+UUwHgcv7zf/7P8W/+zb+J/+V/+V/i//6//+9yKgBMEnwBcKtevHgRr1+/jvfv38fjx4/LqQBwOZ8+fYoHDx7knyXpMwUA5jG4PQAAAACVJPgCAAAAoJIEXwAAAABUkuALAAAAgEoSfAEAAABQSYIvAAAAACpJ8AUAAABAJQm+AAAAAKgkwRcAAAAAlST4AgAAAKCSBF8AAAAAVJLgCwAAAIBKEnwBAAAAUEmCLwAAAAAqSfAFAAAAQCUJvgAAAACoJMEXAAAAAJUk+AIAAACgkgRfAAAAAFSS4AsAAACAShJ8AQAAAFBJgi8AAAAAKknwBQAAAEAlCb4AAAAAqCTBFwAAAACVJPgCAAAAoJIEXwAAAABUkuALAAAAgEoSfAEAAABQSYIvAAAAACpJ8AUAAABAJQm+AAAAAKgkwRcAAAAAlST4AgAAAKCSBF8AAAAAVJLgCwAAAIBKEnwBAAAAUEmCLwD4Gfn9738fDx48iJWVFU3TbqD9g3/wD+J3v/tdeYYBAPeN4AsAfkZ++9vfxqdPn8p7wHX99NNPgi8AuMcEXwDwM/T8+fM4OTnRNO0a7dtvvy3PKADgvhJ8AQAAAFBJgi8AAAAAKknwBQAAAEAlCb4AAAAAqCTBFwAAAACVJPgCAAAAoJIEXwAAAABUkuALAAAAgEoSfAEAAABQSYIvAAAAACpJ8AUAAABAJQm+AAAAAKgkwRcAAAAAlST4AgAAAKCSBF8AAAAAVJLgCwAAAIBKEnwBAAAAUEmCLwAAAAAqSfAFAAAAQCUJvgAAAACoJMEXAAAAAJUk+AIAAACgkgRfAAAAAFSS4AsAAACAShJ8AQAAAFBJgi8AAAAAKknwBQAAAEAlCb4AAAAAqCTBFwAAAACVJPgCAAAAoJIEXwAAAABUkuALAAAAgEoSfAEAAABQSYIvAAAAACpJ8AUAAABAJQm+AAAAAKgkwRcAAAAAlST4AgAAAKCSBF8AAAAAVJLgCwA433CY/W9Y3pmWHitvnpo37ZqG/ej3b3qhc6R9LW9eS7acW9neL9iw343uEscozedQAgBXJfgCAM7V361Hvb4R3Xnhw/BdbNRXYmWtHf10v9+OtZVs/o3uxQFSv79koNGPdr0ZzeZusY4rWBzcjUnbXs+2vX2FtaTALNufbjvtf3Y8suU0m2fHbJgHd8u0uQc5umtrsbZwu4pgclG7nGwflk2ZsuO1ku3r2tw3xkWG8W5nK7aa9Vg593j3Y7e5Fc3sPXaVlwUAQPAFAFzd4EMcpX9Xn8Z6+nd9O541sn+PtmLj3ECkH+1mM5r1tWh3+xeEZOux3UkL3Y+dq4Qsw25s1OuxsnZB5dBo2/d35od885ThTwq66tn+bO3vF8ej0YhWazU+vCsWNNhNwd0SbefdnGMxiHSUj/abc8OvYXcj6mn9C9rygVEK2LJ9aNavGGYtL23zVnGgovM0O4xTAeDp2vtvs1c902jFo+w9Mz1fCgqX3tLsfZCHksu27P3yeY8CAHAbVk4y5W0A+OxevHgRr1+/jvfv38fjx4/LqdyWH374Ib755pt4/vx5vHr1qpx6vn57JZr7jegMDmOzVk7MpaCkHltHU4+lgKH+JlZ7B7G3PvGEScN+tDeasZ8CkEYregd7UR/0Y1A8Ounj29jZSqFStq7ey3hYTp5Uj/V56xtfT/b8VtquerZfgzlreruT7Ws2Y9qel0/LiZPq6+txtpZ+dgx24sPqs3j09GF82EnryZ57slcEgaXTY5it+0m27hmDd7HR3IqjRicGh5tjyx/J9mElW3Z2q9EZxOHYCzHsrkV9KzsynV68HDswH7NtSeFSq3eSvQ7lxIvkr122HdnNVm9w/uuXQr/m/sz2XGhsHfON3k+j91c5ea7yWGfLbG+8iVhdLaePO87+exYH2xEbab0plDyd7zj289d7ctpxNm3xa3Hmu+++i++//z4/l9I5xe369OlTPHjwIP8sSZ8pADBXCr4A4LZkvxymP7icZL+klFO4Tem4p+OfXodl9VqRPadx0hmUE0YGnZNGtqyUrFxskP03zyBbfiNbfuskLaVYV9YajZPG0m30nM6CdSSj9ZTz9VrF7Uu3Ocfh1OCkk29LsS/jBp207nOeOzqW5+3DaJ6sjR/yYtmT05LRsVzq5Rm3YD0zymPYWHxAZo0tOz1vMOidtNL9RnbMBul+0ZLT90K2Efn00fpG9/OWzzqx3LktP67lusZ3avS8iR0dbdN576fCt99+my//1atX5RRu048//pgf/8ePH5dTAGCWro4AwJX0d8uqnf3m/K5iE62+YOysWqzvHcZgsD1WIdWIzsFhHB4u23rRKp+5WLmeTitb9mbU6tvRGwyy9Y5asYxWZ3zavHYwVfV2i2qbcdhrRaqwGq/gGnxIr0IjHs2rJLuKcj3J/k45dtsNGOZjqJXvmVYvrxKr1dbjaVrV0X68HaT7qfhtN7r9frw9zmeMXrazteyB2vp2pB6vR/tvY5Du5y3Nk0nbfHKS/qCbtfL9kK2juJ+1Cyq3AIDqEnwBADNS17yVNKB61pr5IEtHsbWR7mfTU4A17MZOPj2i0WhFq3XWGsXUiWmtVqOcPl8KMW5DbXOvCK6y9a2fhifZhHc7eTfC/Q+D/LHR9HntTq3vTXUrHMbHPCBajYc3uWnZenqdTvQOJ7tsXket/jQfQ62RAqmx5G79aSdanV5s19PbaiOaW/ux9TZi7zAFjePrr8XDbAGtztO4qYwPAKg+wRcAMMeioKqYflrtlVl9uRd7e6NWDhDfeBbbp9NSO4zDiYGm5g1Knk15lEKyZ/EwHz9svGJsQRtVkTWy7Zo3vFPmwisbDruxkQaSSmM6peqi08lr2TrWzh/oPlv22UDr7+JDPvE4Po4Nvp4UVVlHsZWugDlvP84d8+oc/d1iDKxWeXGBG7S+uXmzy6ytx+bhydT7ILO+GXubqaorm2XzZVGtlV9gIAWN+Ryn1jcPi3nL+1eSLhJQhrprG2dVi6fT1oqx1ACAahB8AQAzUrfAUVfCotfbWPfDp2/LKrCry69EuLIW7YnLLNZifTOFZJt5NdaTl73o9UatUwRxjc7YtKylMqFYj720XdnzZgKRfju/suFae9EVHYfRzcOPVvSmusPVHq5m60xh1Tnd/Qa7Y1dl3CoH0M+eM3OVxkY0Ujh3UZsI77Jta7ejPdHG9iMN2p+/ENlrs704otpvZse5fH4KdmZ7nA6zRY2CurE2Cgyzf1N4ONOKRzOD+Y9PHe8iSJwT+k20Ueh0Tkg41q509cnsOK+urpatjHenps0PfQGAL1Ia6AsAbovB7e/W9Qe3Lwf+zlqrVQw23uqdDUqeBivPB3hvdCYGK09tXBqovFEuZ5lBxE/Xe+5o67Mm1pPtQ9rWM6PB6BcPOj/olIPgL9rGbL96vdFg653y2JQDtWfTexPru6yzY33Wym0dDQqftYWDyy8YwH/2EM5bT9byGUfH6Apt6piNBuFvtLL3Rn5srt465YUK5r8dFr1X5kw3uP0XzeD2ACxjJf1f9oEBALfixYsX8fr16/zS8+kS9NyuH374Ib755pt4/vx5ZL+sl1PPl8b7au43ojM4LMbHSoOUv32aV36tLFv6lboRTg8wniqWNppFldT4uE/DbrR3i06DZ47jOJvxqNGI1upsn8ZH2+XYXXOlyqmN2MpXVO5HjK07Tc2WG0fZ8ou7883bh3HZcSmORyt6J3s3000wlU2V/f1mXod0nN49ib3FO56ZrbyaHacsm6c/iEF5Lz6+jZ2t/TjKX5N69Lu78Xb65UiOj7Pjlx2xNMbbvG6mj57G9li3xFTxVd86yg7jYGqcssubXVbxGr/JxzvLXsfx1zWz+vIw9taz1zxVlE291/IB9yfGHSvnu+j1znz33Xfx/fff5+dSOqe4XZ8+fYoHDx7knyXpMwUA5hF8AXCrBF9363rB10E8fLcbH5+UIVMZ9DQ6vXj5sJg34mO83dmK/WhF5+XTOJ0c9VhfnxchDLPFvItI3RvLKWcBUur+V0yaF2bk8rBqLAw6RwpLNuLgNHQp9iu7kS2vEamLWz45Hj3Ktrvc8NRNMnm3Uc/H0jovtDldXhl81YfDImRKAdXGm8gzmSUUIU15Z8x08DXstmOjSHqW8uzg4mOUK8OgbEXnB1Snr/9yQdZoe1efHaSXO7prxTG9lDKgmlxWWvfw3OW1eiexV58Tcgm+vmiCLwCWYYwvAGAJacylen7FvXThw3GrD9djfX3UnsSjfOqjeHI6LbVF8UEt1sdDrzGt3tk4Y4eHvWLQ81ZvbNphHHTGQrAL1Daz54wFNOt7J2nIhzjJl3U2EP/m5tl2j67kuHnQiVarEweLAp7h2VUuk4+pIqm+sXhg/BTY5a28f2Wj5aQAcI7Tx57Fk/MSnFuQrqiZXrPpCrXGxNU/F7XidW48KoLI2WVlr9Fh+XqenL1Xivsnk0Giwe0B4GdF8AUAzBgO+9Ftr8XayqiKKdNoRac3mFuN9HnMHyh9fAD1qQzuQuk5E1K3zRR25CO+p0qfNGj6aDD78v5aN4a1zXzQ/UXZ0fhVLpOHD1P52FFs7WZLSs8tg7rpwG4y3Cvasse3CH9OZi8+MNZG62k8e3Ju5dLdacSz7bPQcWHbfpbNeV0P41kZpJ0/uH0Ztj07q1cEAL5cgi8AYMow3m008zGxUjfCMjqJzsFebC7orngWRp1FUYPTacPoz7+kYinNU94cs9+s510Ni1ZW4ew3x6alCrTLlEz1Yzd7Th5klVOSVBEVeSVRPR6lnW08ym5dQr9dhIOtTpwWoK3vFYFUtr2zV1G8WetP04qO4s276YOY7W9+fFrxclGl2p1b7uqNK6k7Ypp7utzwMmrrsbkoUFt9OTk9tbHxyQCAL5fgCwCYUovNl61odXoxODmM7Oa5pgOqPGs52orm6bR6NHfeTYRNE/q72TxrMwFRqzeIwWDUzrqvnU0bRO8SXR2j/7YIz1Yf3mCg0Y92MVBYdLafFJNK69udaDRa8TRP0eaHe+PykLC8fSnrT/Njc/Rm8hgPuzvF/raeXnOg/Stu15KW6+pYtrKrIwDAsgRfAMCs9eUrXtLg9r3eqHUiH44p7xY5Nv3loq52w+jmg2PNq9wqxtcqWjkpczatdonKrNF6UkA1GwOtPrxKFJYGVC8r0VovZweOr21GGjssFckNuxtRH6tsSlckTPabY9NSSLhseVi/PRYUrsd2CgCPtmLjdFCxs2qv3jX7pvbb2XZNVcndnCW7Oo7adSrX8srD/mR7V16u8vjj7GNZ+5yBHwBwOwRfAMC1XGtw+/5uUSHW6s2MbbXfHA02Pjbg+MQg5GuxUQZIFzpdz2RANfyYrorYKHo6XlotnjxLKd8y4dLqZOVSWaiWKsImpi+zIYNurDX3Y3/nLIyqbR7k3SyPtuqx1u2fBnKNzva1qr3SlTDzgrajD5ceT205R7G1Mf46L9EWXjFgjhR2pbHqUnA32I1msznZtvaLyDVVKE4/1tyJmd6jAMAXR/AFANyRBVVY9UdlEDQabHxswPGs5ffTfOnfcr7zLa72GnxIscdqXKngK5MCp17v4nApDUQ/Xrm0nQdm2ZpfTk6/uKLpKLaaxXhXkwPWF1eeTEs92iq7m6YrYF6nQurNRlmZ1oreYO+a3SVvQHmFyqXtN2MldbPNx6rLrO9NdJPNW684ZtNdaIt2MFvFBwB8cQRfAMA1FQPYnze4fbpK5HTXsdT9b14VVuoiWARB2/E0jrP/nsb2eDi0/SiOUwiyfxzxdDufdl5AsXA9w24Uedjyg9n3u+3oTgzUX1tczXajhpEXp5UancGcUOthEQiWst2aON5LG3zIg6IiZGpEJ4Ven20Xs+XPuRrl3FZcvnKB1I2xG+21tVhZKasDs2UX49SdxMlhcUXO8W6yeRt74WceyxoA8OUTfAEA17LM4PZp+mTXsYvGoErjZ5XVOscfYzCRNW3GQa8VjTjK152u0rj4opGj9WRrejq+nmz5G0XlVOtlEYpcbBgf3+zHVnMjLtPb7kYM38WbYjfmhF7DPJBbK698mQ8Wn3d7bEZ9ZS3a3cuNVVV0/0xS6HX4+aueshf3LCA9p5WzL/JxZyv2U1iXjy83iJOTQ1dmBAAEXwDAPP1ol4Ou52M8ndMdcPLqi3Pa6SD3L+NJvowUai0eg2rYb8faSj0P0FLIk6p1piuOaut7cTjo5eNaFSHb2lQlVuH0yoaNTmyfrqgI1fI8bGJ66XQ8q3o8Kpdfz8eXGj3nWbkfS8j2JR3D6TZvcPuzlu3L9K7UnkQxnNhY98VhP7rtVOFUz8eqilYneoOTOExVcYfpipdlOJgHYMVy19baFwZhtSfPsufdUuiVbd/WRHB6TiveiAvU4snLThF4He7F5tQbZpiqwdrZvk+33Td5+BnHO/Mfb3+uQf0BgNuycpIpbwPAZ/fixYt4/fp1vH//Ph4/flxO5bb88MMP8c0338Tz58/j1atX5dT5+u1R6NWIVu8g9qbTpxTqZDO0eiczA9NfaNiP9sbbeJquelhOmgykWtE7WK6LXRqAPQVJ87v/ZVI3y2wtxbImQ69B2QWukMK+FMhl6z4ptmvYbcfGaAD0XCM6vcPYnLu/o2WfPT8do7WdVEGVxilLEy52nM3+LNv32V1JVU+17L9sPe1sPaMcKD9W29n+zT9YKfTZzauhivvLvF7DYcSFPf3K13/hcT/X6Fil43kQT5bpazrYzcOvq6xv9B65vLHXco7vvvsuvv/++/xcSucUt+vTp0/x4MGD/LMkfaYAwDyCLwBuleDrbl0m+Erdy1L6sTBiyB7vDwZRr69fHJIsrR/dbsSTS3ZRu3BbJ6Sugdl233g3uLTc3Xj74VFs7y3bffKqhtlxGsSTJ5c59sOUAUZKAG9q2y533CcN+/28sq6+vvzrcJ31fQ6Cr7sl+AJgGbo6AgBz5QN8l7fnyh5fT6HFjaYQ67F5hUDqwm2dkG33Zxn7KS03DcD/uUOvpFYcp0utKDtGNxh6JZc77pNq2Xsnf/+U95dxnfUBAD9Pgi8AAAAAKknwBQAAAEAlCb4AAAAAqCTBFwAAAACVJPgCAAAAoJIEXwAAAABUkuALAAAAgEoSfAEAAABQSYIvAAAAACpJ8AUAAABAJQm+AAAAAKgkwRcAAAAAlST4AgAAAKCSBF8AAAAAVJLgCwAAAIBKEnwBAAAAUEmCLwAAAAAqSfAFAAAAQCUJvgAAAACoJMEXAAAAAJUk+AIAAACgkgRfAAAAAFSS4AsAAACAShJ8AQAAAFBJgi8AAAAAKknwBQAAAEAlCb4AAAAAqCTBFwAAAACVJPgCAAAAoJIEXwAAAABUkuALAAAAgEoSfAEAAABQSYIvAAAAACpJ8AUAAABAJQm+AAAAAKgkwRcAAAAAlST4AgAAAKCSBF8AAAAAVJLgCwAAAIBKEnwBAAAAUEkrJ5nyNgB8di9evIjXr1/H+/fv4/Hjx+VUbssPP/wQ33zzTXz99dfxJ3/yJ+VU4Cr+7b/9t/k59erVq3j+/Hk5ldvy6dOnePDgQf5Zkj5TAGAewRcAt0rwdbf+9m//Nv7xP/7H5T3gJvzmN7+Jp0+flve4LYIvAJYh+ALgVgm+7l46/ukXRuD6fvGLX+TVXn/wB39QTuG2CL4AWIbgC4BbJfgC4CYIvgBYhsHtAQAAAKgkwRcAAAAAlST4AgAAAKCSBF8AAAAAVJLgCwAAAIBKEnwBAAAAUEmCLwAAAAAqSfAFAAAAQCUJvgAAAACoJMEXAAAAAJUk+AIAAACgkgRfAAAAAFSS4AsAAACAShJ8AQAAAFBJgi8AAAAAKknwBQAAAEAlCb4AAAAAqCTBFwAAAACVJPgCAAAAoJIEXwAAAABUkuALAAAAgEoSfAEAAABQSYIvAAAAACpJ8AUAAABAJQm+AAAAAKgkwRcAAAAAlST4AgAAAKCSBF8AAAAAVJLgCwAAAIBKEnwBAAAAUEmCLwAAAAAqSfAFAAAAQCWtnGTK2wDw2b148SJev34d79+/j8ePH5dTuU3pNfj06VN5D7iOX/ziF/GrX/0q/5fblX6OPXjwIP8sSZ8pADCP4AuAWyX4ulu//e1v44//+I/Le8BN+Ff/6l/Fn/7pn5b3uC2CLwCWIfgC4FYJvu7WDz/8EN9880388pe/jD//8z8vpwJXcXBwkP88e/XqVTx//rycym0RfAGwDMEXALdK8HW3RsFX+iU9/bIOXN13330X33//veDrjgi+AFiGwe0BAAAAqCTBFwAAAACVJPgCAAAAoJIEXwAAAABUkuALAAAAgEoSfAEAAABQSYIvAAAAACpJ8AUAAABAJQm+AAAAAKgkwRcAAAAAlST4AgAAAKCSBF8AAAAAVJLgCwAAAIBKEnwBAAAAUEmCLwAAAAAqSfAFAAAAQCUJvgAAAACoJMEXAAAAAJUk+AIAAACgkgRfAAAAAFSS4AsAAACAShJ8AQAAAFBJgi8AAAAAKknwBQAAAEAlCb4AAAAAqCTBFwAAAACVJPgCAAAAoJIEXwAAAABUkuALAAAAgEoSfAEAAABQSYIvAAAAACpJ8AUAAABAJQm+AAAAAKgkwRcAAAAAlST4AgAAAKCSBF8AAAAAVJLgCwAAAIBKEnwBAAAAUEmCLwAAAAAqSfAFANyM4TD63W70h+X9L8Qw2+6bdNPLGzfsd6O7xAFO831pr8Op7PjNHMI0rbx587L37Rd7sACAiwi+AIBz9dsrsbKyFt0LsoH+bj2aW1ux8+5LCRGG2b6tRb1ej3a/nHRdw25sZMtbW+suDGqG3bXseK7E2kUHdMYw3u1sxVazHivnbnA/dptb0ayv3Nx+3ahhdNey99Rae+57avhuI3tNssfLjR/227GWHdPdS+1LP9rZMV4553UopPmy921z48L3NwDwZRJ8AQA3Yv1pK//36MMg//f+q2XbvJrf2t+5KCBZzvDdmzhKN549yZY+X+1hsc7LGnY3YitfeCM6TyP6/f5EO93+/tvYT/82WvEoJucp2hWqp4bdWEtB0rLtvMBp+C7e5PvxKJ7MHKRhvMsfzPZxez2fUqs/yv+9qddo0nrs9dL79ii2LpesAQBfCMEXAHBpoyqwtbWxtpPHLRH7zcnpZRhyL6uP1veiyD22YuPaJT/92M2TqVa83BwlOkXlUaoAm+5Nt/pwUTQ2R6okK1KvzFFsNZvRnGg7URTaDaM7eh2O9ufMl9puTEST2bLb2evUbrfntOz1a48FTo1GtFqtsjXmTiunLjQKB1svN+eEg4P4kOdez85CsdpmHHSypR69Kffxhq0/zV6xzP7bL7d7KACwkOALALiCRso7YnV1dayNwo/W5PTsfiPNPE8ZukwEZZds1w3U1rc7eVhz9Obd9SqKykqrRmc7ilqlTDntaPVhrF8i55qQqq3qW3lY1OgMYjDoFUFNoxW9Qbqf2kGkrK3frhdVYa1eMT1P9dKs5f287Z1tX+n46Cj29/fntKM4Os5mqD2MvE5t9WXs7e0VbftZEXKNT9t7Wcy3UFnR1ehEWdA1aXQMnz3JZk1jfRUtnhzk+/gke/5o2s2NpbYe29lxOTnJjstVXyMA4N4SfAEAU9Ig9e3odouucR9T8JH58C7dLwZXX987jMPDwzIA2Y7t0+CjbNuP4jgexdPt4n4+77ygI5NCl6OsXVZ6zkXPGw77E0HJ3BZP4mWnE72DybBlUetnbdao0qoRz8b67w3zg3fWbe+yivGtitArhVmHm7Wo1dYj71V6tB9vB+l+xODdbva69ONt/lq1opcd7Fr2QG19O/Jiqf23MUj385bmGVPbjMOTkzjJWxmqZesq7mftcF5l1hX1d/NgLgVb+TLT/qWxvspSq/7bolrtaKuej712btu4YlCZrXOiW2bW0vKmpy0zrh0A8AXIvtAAwK15/vz5Sfr4ef/+fTmF25SOezr+6XVYbHDSaUQ+37zW6AzK+bI5O418WqtXThjptYr5Zx6YMuicNJaZb45eq9ie8546mudG25wVjo5DROPk7PCMHcdG46QxaqfLGptWttbYsc0NevkyGtPr7HWyeXsng2z203Xn8wzyaeN62eP5vOX98/VOWqfLGjdn+tzXrpyv0Zm7vuL1aGVzFSbeP6PlZcclbW+vV7ZynkarczYtb5NrGKRj0mqVbXScs2WdTsuen54yem82RtNnWyN/3cZfy/m+/fbbfFmvXr0qp3Cbfvzxx/z4P378uJwCALNW0v9lHxgAcCtevHgRr1+/jvfv30f2y0o5ldvyww8/xDfffBPPnz+P7Jf1cuqsVNk0MkhXa9xvRKd3EE/qacpY1VCqnmmmKp1W9FJXsWJqPgZY/pzBYd4Fb6FRN75UYbSoJGyBYh2pOOlkYTVZqlx7+6G8kxwfx36qEms0orW6uFPe8fF+FLOlbpvlxNLxo6dxuDm+wjSOV7MYUD5Vd432+fTYLC91ZUxVXZczWv8Sx/tC5bJmXo+zfWxkx66QKu6KWzPTGp0YTFeKzbzW6eqO9diKYt7sTtTzfppT+1Eex4uOTbpaZvH8RcrlDi5e3rLv3++++y6+//77/FxK5xS369OnT/HgwYP8syR9pgDAPLo6AgAzii5xRTtVn9NVruxKF1n7eJqV9SPvsTY+QPkdWd+c6oJ5MG9cqum2Hc/yZzfi2cHs45OhVwpvRqHXpKLbXgpPRt0Iy1aOu5UCu4npWZsOYlKYM9sFb7qN1n8UW/V5j0+2tev032s0xsZvK8OuqWmjCGxSP9obRZfN1qPsXrcb7XZxlcpikPvRhQGurrZ5OHYsR+OgdWJwOu26oSAA8CUSfAEAlzSM/ulV/3bjQxrUfjXiw+5o2k4ZxHyI3dP50jhO+cS7VXsSz1Iyk67gV0yZo7yyYKzGRRdeHHaL8CZaveLqkCPDbuRDfrVe3kjY0mh1otfL1nGN1imvwnipq0lOu87g9mWutb/VjObWVj5wfgqmttdThdVkNVkxnlzZzgaZO5uWNcNvAQDLEHwBAJf28XjeFQBHrUw4jianj/c4vDu1eJgnM8djFWpTyisLRuvpzNUPJ5VXKCwHkx/X3y2rm56ev4SlPXoS6+vr12pPHhWLOp7Z8WF026OrZJbVY/vNG7tqZmE9nnZa0emNrjZZXEkzr/YahYSNTrzMS+2OinCsWbayEuxof+tsWnMn3km+AIAlCL4AgKV8eJeuwLcS7X4tNg9H3cfK1utEqzcY61Y22y45hNdns76dQpejeLMgORldWfDi0Codh0H0BnszAdn63kke8KRqputZzaugiiqq1K1yfvfFc9tpcjW+rCnHxRUyR2N2JRNXzRx+jLLu6spSt9PN9XS1yYh3O1txVFZ75VeVHPSi93Iz8iHkUvfQ9F5KAVkekhWldI1OGZrl7WD5brTpSpzddrTXJq/SePRm97QacbrtXHdnAYB7Q/AFAJxjGEVPs1SFkwZ8b0RZODSh/3Yr9pv12LjO+FG3pezueLS1O6e7Yzk+WbRiuWKtWqwvCGDy8dDK21dV29yLw8PD2JvqL9lotaJ1YSu6DTYeFXHSomWlfTgLMsuxsdIA9PMCy7FKsLVyzK6JaQvGO5vQ3x0b26tUS1Vp5e3kdDy58WNYP5u26NgOhzHs96Pb3imCuqOtqNfr0czeu/vTkd9UReJ4Gw8AAYAvm+ALAJhSVMik6q6VlXoxhlUmr7hJA4TXu9HudsfGWyq7qkWqJhqMTZ9q3fsyLlMtNl+meGc/dqaCumG3GJ+s0dm+oJvjeVJl1igImtPKKz3uN+c8lrfuBcepEc+2R2NqndNGY3DdiIfxrAzUzh/cvgzdnj0sHpuRHZv0ZhlVe92YshquXo96sxlb+0dFKDeqHksh3uHexHhr8y4uULRBccEGAKASBF8AwIyPb8qql0YrisKhRjx7sl5U2Qw+xP7W+HhLZeVPXhU2mjanbb2NQT7fPVBejfJoa+Os+9uwGxvFSPXx8toj0o+Cl8u7+HnLXb1xpV68LkcfbuCo19Zjc1GwNu8KmZvle2VCuihCEaQ2nj2JyMPQdHXHORc+GAxjmKq3UisnpYsOnE7LnjsZDtbiybNWfhGAIugaXdXxWTxZn6wOG44Gy18oW9bLdEGAl3d+VVIA4PoEXwDAlPSLfxEgpCqZp9ODQq3vjY211CuDsVb0Tqdl7XRcprFpc8bCujujqq+j2NpIFVbD6JZd965X7ZWUXQcPD/OuhTOtPDat3pzHsnZyONYFcIHlujqWrezqeOf6u1EWu8XRVlGZVVzd8Tj1YhyTvSbN7PFUvZVXcBVPOtpqjk2bHdw+78q5txmbU0HXtEF+yc5GnHdYauUFAeReAPDlE3wBADNq60WAsMhonKV4txPpIo6t3l6sj42/NMgHyioqp0bTsv/dL+t7kWdQaRyoUZfORicOrl3t9bkt2dVx1G5if4bD2a6r78rrdB5/nH0sazPdNdef5lVYjVRF2EkVVaNA9HCiC2Lavxsd3H7CaMy61Xh4319mAOBGCL4AgCvqx245ANj+TuquVkYd/XZe2XP9yqnPb31vVLGWNKJzcHG11d1LVWrzxgY7p13logMp7Gqn53djONid03V1P6+QS8HhzGNzKrKyox17JydxeJjCuFRRdU4getXB7S80iKLg69FkkRkAUFmCLwDgitZjb9CLTkqOjvbz7mkrKWTJu6bdxDhZn1saEL2ZV6wV0thZa9EeBXhVcHSU/e90B5e338wHim+OBomf6N5atl6nGOOrNV6JNWoHU1Vc58jH7OrGrRz2/tvi4gXPnujGCAA/E4IvAODq8kHPD/Mr4fXyAGw0qPtxvL3MVRxT0DJvgPZz2mi8qKsY9tuxNta9MV31L3Wpa2Rbv58HeGMVbPdOqkybPz7YTCu7CZ4vdWPsRnttLTuuzTwYSutI3RGLqyEWVXAT1VapjZVMzTyWtRmj7pLlgPapEi1/LfMxu97Ex3K23EWD24+Wlf17Gf28C27Eqn6OAPCzIfgCAK4nhRDtjbw6KA9MWmWAlAYjX1mL9jIBWKN43mVa9pTLSdvZTYHXSj5g+lHa1nwA/zLYWd+Lw+kKtmz719qpGumehWDjwdB5rZz9Ih93tmI/VYY1WsVFDU4OF1yZ8arSxQPqRTfIfED7dNXQ7BXIx/vqRK83XiG2xOD2WcuXtbvgipXDiRitMOzGTl7u1Ynt+94HFwC4MSsnmfI2AHx2L168iNevX8f79+/j8ePH5VRuyw8//BDffPNNPH/+PF69elVOnWPYjfbGmziO1FUuTWhF76S8KuNwGP3Bu/j49k28GXWFSxrZPAdpkPt0ZzwMS1LIdBB70wPmZ+tZq2/FUasXJ3uXSyP67aLqq9U7yZZbTpwy7Pfj3du32XaW41GVGq1OvNzeLLd1Vup6t5uHQeWEkRTQvZyzH5liexrRmRmsfUq/HSvZhqcrXh5eqjto6ppZVqld0kXrSvv7Lp7MvaBBfizelgPZTziO/XSA0jFZnb70Z/IotvfOxkwbdtei/mY1Os+expMn6zG3KCzNsxXRyd4rT5YZhCtVl5U3c+WxPXX6vupHu6xmO+/9clnfffddfP/99/m5lM4pbtenT5/iwYMH+WdJ+kwBgLlS8AUAtyX75TD9weUk+yWlnMJtSsc9Hf/0OpxvcNJpRD5vao3OoJyeGXROGuX0/LFW56Q39vCEQe+klS+nddIrJ03IHu+0Wiet8eUvadDJnpc99/ynZus/3dZGtq29k8FlVpXN3Gtlzxsto9HJjsx8vVaxjot2ZdBp5MuaOKZLGb0m2TqyAz7Itu3C1mtdcV1nRtt7+bbgNT9Hsa6Lj+Fio9c7vdZnr1V6DfNtOuf1u4pvv/02X+6rV6/KKdymH3/8MT/+jx8/LqcAwCwVXwDcKhVfd2vpiq9k2I9+1KM+XVUTw+yhQQzq6wsrpialbndp3Kfy7i07r5rpUvKug+fsR9m1cO74VhPS8cj+mTmuF0sVbKlzX319+W6IqcvjVdZ1F4bZe26Q7eBl9m9Z+bFb+j27HBVfd0vFFwDLMMYXADBfLYUE8wKTbNr6ZQKEc8KiW1Bb37x+6JWkY3HeYvLHl1lPMd9Vtig/7pcMha66rrtQS++5zxB6JZd7zwIAVSH4AgAAAKCSBF8AAAAAVJLgCwAAAIBKEnwBAAAAUEmCLwAAAAAqSfAFAAAAQCUJvgAAAACoJMEXAAAAAJUk+AIAAACgkgRfAAAAAFSS4AsAAACAShJ8AQAAAFBJgi8AAAAAKknwBQAAAEAlCb4AAAAAqCTBFwAAAACVJPgCAAAAoJIEXwAAAABUkuALAAAAgEoSfAEAAABQSYIvAAAAACpJ8AUAAABAJQm+AAAAAKgkwRcAAAAAlST4AgAAAKCSBF8AAAAAVJLgCwAAAIBKEnwBAAAAUEmCLwAAAAAqSfAFAAAAQCUJvgAAAACoJMEXAAAAAJUk+AIAAACgkgRfAAAAAFSS4AsAAACAShJ8AQAAAFBJgi8AAAAAKknwBQAAAEAlCb4AAAAAqKSVk0x5GwA+uxcvXsTr16/j/fv38fjx43Iqt+WHH36Ib775Jn75y1/Gn//5n5dTgas4ODjIf569evUqnj9/Xk7ltnz69CkePHiQf5akzxQAmEfwBcCtEnzdrd/+9rfxx3/8x+U94CYIvu6G4AuAZQi+ALhVgq+7l16D9AsjcH2/+MUv4le/+lX+L7dL8AXAMgRfANwqwRcAN0HwBcAyDG4PAAAAQCUJvgAAAACoJMEXAAAAAJUk+AIAAACgkgRfAAAAAFSS4AsAAACAShJ8AQAAAFBJgi8AAAAAKknwBQAAAEAlCb4AAAAAqCTBFwAAAACVJPgCAAAAoJIEXwAAAABUkuALAAAAgEoSfAEAAABQSYIvAAAAACpJ8AUAAABAJQm+AAAAAKgkwRcAAAAAlST4AgAAAKCSBF8AAAAAVJLgCwAAAIBKEnwBAAAAUEmCLwAAAAAqSfAFAAAAQCUJvgAAAACoJMEXAAAAAJUk+AIAAACgkgRfAAAAAFSS4AsAAACAShJ8AQAAAFBJgi8AAAAAKmnlJFPeBoDP7sWLF/H69et4//59PH78uJzKbXr79m387ne/K+8B1/GP/tE/ij/90z8t73GbPn36FA8ePMg/S9JnCgDMI/gC4FYJvu7W3/7t38Y//sf/uLwH3ITf/OY38fTp0/Iet0XwBcAyBF8A3CrB19364Ycf4ptvvomvv/46/uRP/qScClzFv/23/zY/p169ehXPnz8vp3JbBF8ALEPwBcCtEnzdrVHwlX5JT7+sA1f33Xffxffffy/4uiOCLwCWYXB7AAAAACpJ8AUAAABAJQm+AAAAAKgkwRcAAAAAlST4AgAAAKCSBF8AAAAAVJLgCwAAAIBKEnwBAAAAUEmCLwAAAAAqSfAFAAAAQCUJvgAAAACoJMEXAAAAAJUk+AIAAACgkgRfAAAAAFSS4AsAAACAShJ8AQAAAFBJgi8AAAAAKknwBQAAAEAlCb4AAAAAqCTBFwAAAACVJPgCAAAAoJIEXwAAAABUkuALAAAAgEoSfAEAAABQSYIvAAAAACpJ8AUAAABAJQm+AAAAAKgkwRcAAAAAlST4AgAAAKCSBF8AAAAAVJLgCwAAAIBKEnwBAAAAUEmCLwAAAAAqSfAFAAAAQCUJvgAAAACoJMEXAAAAAJUk+AIAAACgkgRfAAAAAFSS4AsAAACAShJ8AQDLGQ6j3+9HP/t3kWF6PGuL57imYT+67Xa0u59xHffYsN+Nbv/iPU/zLTHb/ZS9v2beYmlaefPmpff1z/HdBAA/D4IvAGA5g91oNpux8668P2MY73aa2Tw78e6z5Qgf483+fuy/+VjeX85FYdywuxYrKyux1u6XUy5h2I21te7U8suQ8NKtG+3uoi1Nx3crtpr1WDl3O/ux29yKZn0lrrI7n98wumsrsbLWjnm7Ony3EfVs20f7OOy3Y61ej91L7Us/2tnruTLzukxL89Wz9+zG3G0BAL58gi8A4IbU4uFq+nc1HtbyCTev9jBbemb1Yba25aRQKwV29RS0zK3s6cfu1lH2byuebddjmFccLWjFEyb0d9/E0dFW1FfWzsKT4bvYydaZ1nu5thX7HwblQiYNuxuRb2Y0ovM0W+9UaHa6bf23sZ/+bbTiUbZv0/Ol6qZLZzwp3EtB0rLtvMApOzZv8v14FE9mXsRhvMsfzPZxez2fUqs/yv/d37koxLqK9djrtbJ/j2LrcskaAPCFWDnJlLcB4LN78eJFvH79Ot6/fx+PHz8up3Jbfvjhh/jmm2/i+fPn8erVq3LqAsNutDfexHF5N46OIs8rohGNRn5jxlE2Ty6b4WyW1Xh2sBebEyHHMLrtjXhzuvBp5XNScDOIqNfXo5Y/P1XoNGO/1YuTvSIYSd36dt9+iEfb0+s4M+y2Y2NrP9/+Rvbcg+y5xayp+qheBkoXa/VOolzthBSu1fOFNKIzOMy2uxtr9a04ytY12K4XMy0pxV7rxc6eScFTWl55d1a53toy+9OK3slenO5G+TrHah4pTjnO/nsWB9sRG2n92evaOp3vOPb3sxVNTTvOph01OjE43JwbTo6O1fxjWb6+U88vnhPlPpYTzzV/OfOV86bjMsiOy1LLL3z33Xfx/fff5+dSOqe4XZ8+fYoHDx7knyXpMwUA5lHxBQAs8DAera7G6qg1yiirMTZtqhWzNLJZxqc/ypZ0vhSY5a28PzJ8t5NXQu3OL4IqfHwT+/sLE7RcbXMvDge9aGXbd7T/Ng+Xkn67rKJqdaLX62WtE51O+nesdVJFUKbRibIIaUZt8zAGnflpYK1Wm2iRd+Wrx8a72cdSOy/0anQGMUj7kaY3UlCT7qd2kAdC/XYZeqXALU3Pq5nSrOX9vO2dhV6l4+zY76cupDMte03SoT2ttHsZe3t7Rdt+VoSb49P2XhbzLVRWdC06lmW1WuPZk2zWs0q7eHKQ7+OT7PnjFXg3Yz22s+NyksLAS4ReAMAXIlV8AcBtef78eao0Pnn//n05hduUjns6/ul1uLReK39uozMoJ8zqtSKbp3XSK+8vZ3DSacx/3qDTyKY3Ts5W2TtpZduQyoVGZuc5z+BkUM7Xy5+XLavRyaaWyn0cX36xT3EyNmmh0bKzjTppTC2nMNrX5bZ3kG1Pvpxzt2mQ7UvrpNPLjs3McVx8bOebPb6FOdPn7mM53/gxHTf9Hkr710jbXtwf7ddSbdE6cudsx+g1vrBd/Bp9++23+byvXr0qp3Cbfvzxx/z4P378uJwCALNUfAEAl3K0tRFra2tzWzMfXOqSRmM+tZ7OVCLdvFRVVdxa3zyIXmeqS93HonKs8eise2L9aS862XxzK5SmTBdrjaSulsUxGnVDPIo3G9PHb3aw91r9aTxrZNsz1rUzWX/aiVanF6kXZRr7q7m1H1tvI/YOpyu6avEwW0Cr8zQu1+Hy8+i/TW+QVrws+yum4310tB8f0isw7MZOMThZvm9nFXd5XVl2DEZVeWV7+WSiC2Pq8tpOV/zM207RRffoTeyeTpu60mWjFa3W/DYqbgQAvnyCLwDgbg0+FN34xsKmz6cf7bXRIPS1WN8cH/9pNMh9Cvd2T0OS2vp6bE7MN6bfLq5OOHfQ/HEp4EndOdP4aEUbVzw2p7tmLVv34UkcTg+Gtb4Ze5vFuGe1zZdF18f9nWy/zoK9kfXNw2Le8v617DfPgrqNcsyx8WlraaysBUbB1mnAOdntcfjuzWlX10dP1mM9O+55K66YkCaeTcvb1B7lXV7HumjmE8e7cL6J8WuBNp5tj3XRnGwvz++vCQB8QQRfAMClNDoHcXh4OLeVQ0pdSlEF1Ihns5f4u2Ep9GpGGo993oUTh92dPLRJ1Uat7FazPnaVxgX6qULsaD+2mvU8ALso/2r1Lnfc0qDuc6+aONFGYdNRbNXnPT7Z1i7aqfM0GmNjt5Xh3dS0+cVS2bEvg7LWo+xeN1VnFeOrtV6mUPEsdLyqNM7ayclJ2UbjoHVicDpt2YHxAYAqEXwBAJdyo10dR1VAjdV4OD5wefHoqQ/v+tHvp/ax6MJ2/LG83493H/JZLnAWeqXwabKAahj9dnlVxlR9tLkee71WNMogaW26i9yYVE11Ug6anwKw5kZ3ZtvHHX8c7cdkK3tYLjTTze8KrZNvZMTqw2ukP9cZ3L7Mtfa3mtHc2sqrskbVXv12Ed6NKuHOXu+sjQ7Oh3cTx+wa8R0A8HOSBvoCgNticPu7dROD20ejddJqzW+NSw2knsZHLweYn2qjwc8XPT6vzYzHPjIYDfo+Ps8gm9w56bTGlp/t18QiBp3T5xWtkQ/E3ur05g6qPsgHmD+9MzHw+3L7MTuY+uh5511QYFmLlzXIj0OjkdrZ9hT3G+Uxu/7g9qMB+AeD4tin5+ZPHS0ne87pBQcubBcNPH/x4PYXX6TB4Pb3ncHtAViGii8A4FJubGykYTc2yu5tjdFg5p1UaXWm9uTlVOVSp3i8MVsBlQZ6n9WPdr2o9Gp0BmeVXsN3sdHciq38gUa0eoM4OdybHFy/tlkMFp+qv/KVpnG49iMezh8vq7a5F5sTC5iV1jMYzLbFXURX8yqo4rAOo7s2v/viua3dz589uawpx2nfUivvZ4r75YRhWWl3Dev58SnGJXu3sxVHZbVXOs6Hg+w1fLlZDsDfiM74cSoPTnqPnB2zg1i6Z+xwGP1ue2xst8LRm91y0PvZtnPdnQUA7o2VlH6VtwHgs3vx4kW8fv063r9/H48fPy6nclt++OGH+Oabb+L58+fx6tWrcuqsdBXCjTfpt/80blMxLY6PYz8FIelqeAsCruPj/cgHcM9mOJ0le16eI6y+HBukvR/t07GpUiB0UoRSw26s1bciOoM4nDsgU/m8qascnitbZnv3YWxvRwzGxvb6+PZtfHj0KJ4+fFhOOU896tnqBv3s1nrt4oHiy/04KrczjdWVulKe7ueUfnslmvuNbLfPG4cqBV/FVSEbrdb8AGtC9nrtH+WB3/xjOc+C4zvan+xmCs8KZ0HZzLQ0ttbY1TInpAsCNPfnHoviOKWXf+w4lPMvtR+pm2z2Ir97uxNvsn0vN6+QvW87B3uxOSiWd7GLXo+I7777Lr7//vv8XErnFLfr06dP8eDBg/yzJH2mAMA8Kr4AgDmOy9DgOI5TcDUKr5KjdIW8seljrQhCjuJofHrxpLEQoh/d867+N6EY8+si88YFO5Uqt1LC8m4nms3madtKV/rb2pqYtrDtvEsLyq8kODcHSeHa+OD2C65Uud+cU5GVtcuNjdaIZ9vzK+4m2mgMrhvxMJ61WtFKgdu5g9sX87SeLQoTh9FNg7qNqr1uTFkNV69HPXu9UiVf8X4rq8fS4PaHexMhVgre0t9/Z9sgOjd34ACAOyb4AgBm5FfIm7764EEZpKRqnpPRtIM4ODibZ1AmBo1n01d+PBmrIFqPJ8/SfK3oLe7jlxt2N6Jer8dpb715ht3YyObZWPJqhYu6G85v5dUBLzL4EPtpcPvdYkOH06PVP3xWBEJlGxVIpcqts+nPYpnasxQiLnP1xpWyQuto3iUsL6u2HpuLgrWJwe3LtjmvO2i6iEBZsfbsSUQapD6/umM7utOv76C8yMFEoDk4mzYzuH0te09lx7XVKYOu0VUdn8WTqbBy5rWZkS3rZeo++3L57pQAwL0l+AIALjTst8uubo3oHIy6sKXxs+pRr7ezW4UUmKUs62irHmvtxVfeq20exGCwNzmm1kKNmCqcupLaw1HnwFrUauMt4t3uu3g3GGQPzT62jP7bomSr9XRyj0ZXUKytp6qzs2CoGAttunJrM9aXXN9kYHZBu4mDdxP6u6eVben9kSqziqs7HqeepGOOYquZ3ldlK590tNUcm7YT76beXGmMtcPsGG5e0BV18CGvxTv3PVVbX4/1NB5ZeR8A+HIJvgCAxYb96LbX8vAhD73mjXnUeDSRW6zvFYO1H+03o76WqnnmxV/Lh0qf3fBdvNnfiq2dj+WEy+pHkXu1osi9hvHuzVS4cl5XzOSixycs2dVx1C4aF2sZ2fb1U4XWeHv3oXjs+OPsY1mb2Z/1p3kVViONEddJFVWjqrrp91TZPXFUdXfdwe0nDKMo+FqNMpMEACpO8AUAzBj205hVa7FSL8ZLyrs39lbjzcZarGXTi1aO03W0FRun01LbjY/bJ0W3x6P9vHpnZSWbfk4F2G1Y2MVtNB7XsydXq/Dpvy2OQ+tpWcE2iLyoaCxc6e/WixBw3gHIB47PHj+3P+e4o9iaeB2WaEt2A52Qwq52en43hoPd2XHPtlIYmsle/5nH5lRkpS6ueycncXiYwrhUUXVOVV199FjWykmpLOysEm98+mWUr81UWAsAVJfgCwCY9fFNcQXHaORjYp2UV+gbXcVvsXRVvyJgyscJG3SilQ8EdRSrTxd3HdtvlgHNRjEu1e0pB1vPjLol9rtpkPqx1KbRiMY5l1Cc6eY4HYT120UXv2zH5lYZ1Z5EPuTZfvNqAdV5shfs6OIXbVa2LWmg+OZokPj1vbFqq7L1Otm7I9Mar8QatYNzr4Y4IVW79btnFwb4nMrX5sohJwDwxRF8AQAz0hhceVe0k8PYGw08tb4XJ6NB7fM2GkC8Ewfjg9hn85yGHumKitm0Qa93w1fxu7zak5fZPmXbcVrqczbYegpv8rH3h93Y2dqPZr2oUmt3I7bTfu2NxjWbNtvNcRSkFUFYP9p56pW6iS4a06wWmwdFiJTGvrq48CuNszY63he0Cy4eUEjdGMsKv5XR1TYbeXfE4mqIxb5PVFulNlYyNfNY1maMukuWA9qnoLMYhD+N2fUmJjqaXjS4/WhZ2b+XMQopRyEnAFB9gi8AYI5a0RWtvHddabDw85bV6pVBTRkAzRoFHuXdGBtXajTW1EVq5YDl2YYUXTlTRVM2PXXjHF1xsrYZB71UpZbHULGfBlRfWYm19vyKpGF3pwiKyq5z6SqUeZCWLTMFff12GSS1Xp5fAZWtdxRS7TfPLhaw0HgwdF4rZ7/Ix52tosKv0crH10rh5fwrM17VMLob2fHOu0imAe3380q0YryvTvR64xViSwxun7V8WbsLrlg5nDNeWwo1y9f7rkNYAOD2rJxkytsA8Nm9ePEiXr9+He/fv4/Hjx+XU7ktP/zwQ3zzzTfx/PnzePXqVTl1kWH0u7vxdmGudBzHeVe4RrRa5/QFfPQ0theFKP12rDT3o9U7KSquMimwSelUmn/YXYt6niRdrNEZxOG8dCkFQKn73ceP8fbNqAtnkqqaDhYP/p49r7+7ETuj7n5Jqxcnow1NYc5aUTGWr/vhbqxl+5Lmzfennsbu2oqjFKyVVVPpYgH9wcfYaZZXyJwa2L3fbsfH7b0FIdnZ+i5r4bEppSDwXTzJr4g4LT22O/dNcBz7+fhv2XFcnff6P4rtsUq5/LV8sxqdZ0/jyZMigJxWvN4Rnd5BPFlmEK7yfXKqfD+dOn29+tEuq9nG32vX9d1338X333+fn0vpnOJ2ffr0KR48eJB/lqTPFACYKwVfAHBbsl8O0x9cTrJfUsop3KZ03NPxT6/DxQYnnUbk81+rNTrZkhYY9E56vd7JYNEM5eOnLZtxMNVOBp2TRraeRmf+QgadxtQ2NU5anWyd5eMXG5z0WmkZjZN5qxjk21XeTutq9Yo7Sdr+8eeU23rhcZlr9Hpk25EtdPo4zG29Vr6uRcdmGbPHb9nWOhk7Eksp1jX/OC+nd9LK1904abTOjm/x+mXTL33Mz/ftt9/my3316lU5hdv0448/5sf/8ePH5RQAmKXiC4BbpeLrbl2u4usLMexGe+NNHD87WFDV1I9u+2M8fPok6tfpvllWop0vdS88bx3DbFt2I55ux5MrbMuw34/Uua9+QdfRceMVdPfdcJjtX7aDl9m/ZeXHrr4ec4rarkzF191S8QXAMozxBQB82fIB9A/P6cq3Hpt7m9cfs+zC0Cu5aB21bFv28i6FV9mWNFZaPk5ZeX8Z+WDz5e37rjYah628f5PyY/elHAgA4MYIvgAAAACoJMEXAAAAAJUk+AIAAACgkgRfAAAAAFSS4AsAAACAShJ8AQAAAFBJgi8AAAAAKknwBQAAAEAlCb4AAAAAqCTBFwAAAACVJPgCAAAAoJIEXwAAAABUkuALAAAAgEoSfAEAAABQSYIvAAAAACpJ8AUAAABAJQm+AAAAAKgkwRcAAAAAlST4AgAAAKCSBF8AAAAAVJLgCwAAAIBKEnwBAAAAUEmCLwAAAAAqSfAFAAAAQCUJvgAAAACoJMEXAAAAAJUk+AIAAACgkgRfAAAAAFSS4AsAAACAShJ8AQAAAFBJgi8AAAAAKknwBQAAAEAlCb4AAAAAqCTBFwAAAACVJPgCAAAAoJIEXwAAAABUkuALAAAAgEoSfAEAAABQSYIvAAAAACpJ8AUAAABAJQm+AOBn6PXr17GysqJp2jXa999/X55RAMB9JfgCgJ+R//V//V/jq6++Ku8B1/WLX/wivv766/IeAHDfCL4A4GfkD/7gD+LHH3+Mk5MT7R63v/mbv8lfr9/85jdzH9fuT/t3/+7fCb4A4B4TfAEA3DOjLnS60gEAXI/gCwDgHvnd734Xb9++nbkNAMDlCb4AAO6R6SovVV8AAFcn+AIAuCc+ffo0U+Gl6gsA4OoEXwAA90S32y1vTVL1BQBwNYIvAIB74Keffopf//rX5b1Jqr4AAK5G8AUAcA/81V/9Vfz+978v781S9QUAcHmCLwCAO3ZetddIqvr67W9/W94DAGAZgi8AgDt2UbXXSJoPAIDlCb4AAO7QMtVeI2mcr1T5BQDAcgRfAAB3aNlqrxFjfQEALE/wBQBwRy5T7TWi6gsAYHmCLwCAO/KLX/wi/st/+S9xcnIy05J501P7+uuv88cBADif4AsAAACAShJ8AQAAAFBJgi8AAAAAKknwBQAAAEAlCb4AAAAAqCTBFwAAAACVJPgCAAAAoJIEXwAAAABUkuALAAAAgEoSfAEAAABQSYIvAAAAACpJ8AUAAABAJQm+AAAAAKgkwRcAAAAAlST4AgAAAKCSVk4y5W0A+OxevHgRr1+/jl/96lfx9ddfl1OBad988028f/++vAdM++mnn+LP/uzP4vHjx84VABYSfAFwq/75P//n8etf/7q8BwDX88tf/jL6/X55DwAmCb4AuFWfPn3KK76A833//ffx7bfflveARVLFV2oAMI/gCwDgHlpZWQlf0wAArsfg9gAAAABUkuALAAAAgEoSfAEAAABQSYIvAAAAACpJ8AUAAABAJQm+AAAAAKgkwRcAAAAAlST4AgAAAKCSBF8AAAAAVJLgCwAAAIBKEnwBAAAAUEmCLwAAAAAqSfAFAAAAQCUJvgAAAACoJMEXAAAAAJUk+AIAAACgkgRfAAAAAFSS4AsAAACAShJ8AQAAAFBJKyeZ8jYAALfo97//ffxv/9v/lv877YcffojHjx+X9yb96le/iq+//rq8BwDAIoIvAIA79C/+xb+ITqdT3rtYCrz+5m/+prwHAMB5BF8AAHfop59+igcPHsyt+prnN7/5TTx9+rS8BwDAeYzxBQBwh37xi1/EL3/5y/Le+VK1l9ALAGB5gi8AgDv27bfflrfOt+x8AAAUBF8AAHdsmUou1V4AAJcn+AIAuAcuquZS7QUAcHmCLwCAe+C8ii7VXgAAVyP4AgC4JxZVdan2AgC4GsEXAMA9Ma+yS7UXAMDVCb4AAO6R6eou1V4AAFcn+AIAuEfGK7xUewEAXI/gCwDgnhlVean2AgC4npWTTHl7Kb/97W/jL/7iL8p7AAB8Dp8+fYqvvvqqvAcAwGX8yZ/8SWxtbV0++Hrx4kW8fv26vAcAAAAA90v6A+KPP/549eDr/fv38fjx43IqAAAAANy9lZWV0+DLGF8AAAAAVJLgCwAAAIBKEnwBAAAAUEmCLwAAAAAqSfAFAAAAQCUJvgAAAACoJMEXAAAAAJUk+AIAAACgkgRfAAAAAFSS4AsAAACAShJ8AQAAAFBJgi8AAAAAKknwBQAAAEAlCb4AAAAAqCTBFwAAAACVJPgCAAAAoJIEXwAAAABUkuALAAAAgEoSfAEAAABQSYIvAAAAACpJ8AUAAABAJQm+AAAAAKgkwRcAAAAAlST4AgCqaTiMfr8f/ezfRYbp8awtnuMGDPvRbbej3f3M6wEAYMbKSaa8vZQXL17E69ev4/379/H48eNyKgDAPdNvx0pzPxqdQRxu1sqJ44bRXavH1lEjOoPDmDvLTRh2Y62+FUeNTgwON2PZ1aRArr6+vnD+YXct6ltH0Wj14nBvvZy6pLRNGxEHE9uTgsJBefsyPsbbj09i77MdQACAy1lZWYmvvvoqfvzxR8EXAFBRFwZfaZaVaO63oneyF5eMji6hH+2VZuy3enGyZEA1CrWi0YrOy+3YXJ/e/nKZkT0+2I4n5dS5arWZ8KzfXsv2O1t+jIV+o4Aun+OSLrFvAACfm+ALAKieYTfaG2/iuLwbR0dliNOIRiO/MeMomyeXzXA2y2o8O9ibUwE2jG57I96crmBa+bzoRyqcqtfXU+aUmQ2+hv1u7L79EI+2562nMOy2Y2NrP9+HVNV1kD23mHVUqZbfuVCrdxLzMqnTcG0UfkUZfGXrGmzXi5mWlOrE1oudBQC4c+PBlzG+AICKeBiPVldjddRGaVdjbNpUK2ZpZLOMT3+ULeliKTTLW3l/ZPhuJ5rNZuye12vw45vY31+YoOVqm3txOOhFK9vGo/23ebiU9NsbRejV6kSv18taJzqd9O9Y67SKmRud2F5QiFXbPIxBZ34iWEtVYmMt3m1EvV6PjXezj6Um9AIA7q1U8XUZz58/TxViJ+/fvy+nAADcQ71W/p2l0RmUE2b1WpHN0zrplfeXNzjpNOY/d9BpZNMbJ2er7Z20su1IpVcjs/OcZ3AyKOfr5c/LltXoZFNL5X6OL7/YrzgZm7TQaNnZRp00ppZTGO3rstsLAHC30vegr776Kr+t4gsAqLSjrY1YW1ub25r75UyXNXwXb/Kqq6efcWywkVRVVdxa3zyIXmdykPzhx6JyrPHorHti/WkvOtl8i6q9xi0q1kpdLYvjNOpWeRRvNqaPYTu6LlUJANxjgi8AgMsafCjG3hoLmz6ffrTX1sqAqRbrm+NXYuzHbjnY19HWbvTLEKq2vh6bE/ONSYP+p8BqNPNCx2V3zjRGWtHGFY+d310TAOCuCb4AgEprdA7i8PBwbuuVQ2FdVv9tKhVrxLMnC8qlbkwKvZqRLsD4Yc6YYcPuTqQtaXV60cpuNeujgGyxfqoQO9qPrWY9D8Auyr9avZs9dgAAt0nwBQBU2o13dRx2YyfPvVbjYQxjOCxb8eipD+/60e+n9rG40uTxx/J+P959yGe5wFnolcKnySszDqPfLq/KmAaw31yPvV4rGnEUW/WVWGt3FwZa65uHcVIOmp8CsOZGd2bbxx1/HO3HZCt7WAIA3Gsr5aBfS3vx4kW8fv063r9/H48fPy6nAgDcM6lLX0q2Gq1orZbTphwf78fRUSt6J3tLj9U17JaB05RGZxCHm7WFj8/T6p1MBVqlYT/aG6PQazTPMJv8Lt69fRNb6YEk27fe4di2D7vZ87by5xVSF8XVWH32NA/HpuvT0jhe7x7uRfZQ/ty1+lYctXpxkq1wuf1oRGdwGNluAwDcGysrK/HVV1/Fjz/+qOILAKi2xrPt2Nvbm9teLgjEFhp2Y6MMgxqdXvR6WeukSqsztScvi+mnrVM83uhMTe/F9twhwvrRrhehVwrTToOx4bvYaG4VoVejEa3eIE7GQ6+kthl7h4MYpOqvfKVpHK79iIezoVdS2yxDr3Ok9QwGs01XRwDgS6DiCwD44qXKpY03qe/daqyOwqzj49g/SiHRRRVfjWyW7HnltPS8vBff6ss4nCjH6kd7pZmPqZWcVmKVlVJRVnzNKp9XVlItJVVu7T6M7e2IwdjYXh/fvo0Pjx7F04cPyynnqUc9W92gn91ar80f6H7cgoqvRVVp/fZKNPdVfAEA9894xZfgCwD44uUhzZuYqLxK0pUHC6nLX3lzzOnj2YOTDx/F0ep4UNWP7lozxnv+LQ6+0phfEbXaKA2aH3ylccGymc4NpC7TbXJGoxODwwVXdkxSuLbxIZ4e7MV6mqnsGnq5LpuCLwDg/tHVEQColFoasH36yoMHz067GA5ORtMO4uDgbJ5Bp4i7Gs+mr/x4MlWdtR5PnqV5W9G7oI/fsLsR9Xo92v1ywjzDbmxk82xcdAnG0qLuhvNbusLjEgYfYj8Nbr9bbOhwerT6h8+i1WqdtlFw2Bib1mo9i2VqzwAA7orgCwConGG/XXTbSxVJB6OqpzR2Vj3q9XZ2q5ACs5RjHW3VY63dP/fqhrXNgxgM9pYcBL8Rj+aO33U5tYejDpi1vILsrEW8230X7waD7KHZx5bRf1t02mw9ndyj1YfFAmrrm3PGQ2vEs+3xcdI2i2oxAIB7SvAFAFTHsB/d9lrUm/tF6DWvG17jUYxnUut7xUDtR/vNqK+1o9tfFH8tHyp9dsN38WZ/K7Z2PpYTLqsfRe7ViiL3Gsa7N6lb41hgNxyeGwRe+DgAwD0g+AIAvnjDfjfaa2uxUm+WVz3sxKC3Gm821mItm160cmD6o63YOJ2W2m583D4puj0e7cdWsx4rK9n0CyrAbsNM98ORwYfIY6pnT84dI2yh/tviWLSelhVsg/iQD+e1GmXBV/R360UQOO8g5OOaZY+f258TAODuCb4AgC/fxzfFFRyjkY+HdVIO6n46tv1CR9k8RbiUjxM26EQrH8vqKFafrp8bKu03y+BsI3WpvE3D6O4U3RRH3RL73Xb002D5I2mw/gVXskxmujlOB2H9djTThGzHRkHYhNqTyIc822/G2pLjlAEA3AXBFwDwxUvjb/XSAPAnh7E3GnRqfS9ORoPa560c9L3RiYPxQeyzeU67Q9Y2Yy+bNuj1Ynty6Ks7UXvyMtuvbFtO+2YOo9+uF1eXbPVOryq5s7UfzXpRqdbuRmynfdtbdEXH2W6OoyCtCML60c5Tr9RVdNGYZrXYPOhkc0Q+PprCLwDgvhJ8AQAVUIv19dq5FVqXUVs/v9orafXK8KwMgGYNY5jGwTotiPoY/X6/aO8+lNMuUFvP9ivblmxjiu6c9aISK3XlHF11srYZB71UqZbHULG/1Yz6ykqstbsxb7iyYXenqO4qxzpLV6HMg7RsmSns67fLLqGtl7Pjo43L1ntYXuFyv3l2wQAAgPtk5SRT3l7Kixcv4vXr1/H+/ft4/PhxORUA4K4No9/djbcLM6XjON4/ijTofat1Tj/AR09je/Oc4KvfjpXmfrR6J0XFVSYFXCmdSs8ZdteinidJF2t0BnE4L11KgdlgEIOPH+Ptm1E3ziTb9s5B7C1KpLLn9Xc3Yiffz1KrFyejDU3VXWtFxVi+7oe7sZZfCCDNlu1PPY3dtRVHKVgru4umCwb0Bx9jp1leJXPqggH9djs+bu+dH5IBANyilZWV+Oqrr+LHH38UfAEAVXEW6lzLeOgzTx4ERdTrRSXWjPLxU2kQ+PLmSC3e5QFTLAi+ZsOzFHi9PD+Qm5C6RG7k1WHzrmw57PdjkG1/6hWar+vDy7NwLG1/FI8V98swLN2+6NgAANwDgi8AgLs07EZ7400cPzuYX/EV/ei2P8bDp0+ifp0unGUl2vmG2X/nrWOYbctuxNPteHKD3UkBAD4XwRcAAAAAlTQefBncHgAAAIBKEnwBAAAAUEmCLwAAAAAqSfAFAAAAQCUJvgAAAACoJMEXAAAAAJUk+AIAAACgkgRfAAAAAFSS4AsAAACAShJ8AQAAAFBJgi8AAAAAKknwBQAAAEAlCb4AAAAAqCTBFwAAAACVJPgCAAAAoJIEXwAAAABUkuALAAAAgEoSfAEAAABQSYIvAAAAACpJ8AUAAABAJQm+AAAAAKgkwRcAAAAAlfLf/tt/y/+9dPD1u9/9rrwFAAAAAPfPv//3/z7/99LB13/+z/+5vAUAAAAA989//a//Nf935SST31pSvV6P4XAYX3/9dfzhH/5hORUAAAAA7t4PP/wQf+/v/b34f//f//fywdcf/dEf6e4IAAAAwL313/13/138/ve/v3zw9eLFi3j9+nX86le/yqu+AAAAAOC++Oabb+J/+p/+p/h//p//5+rB1/v37+Px48flVAAAAAC4eysrK/HVV1/Fjz/+ePnB7QEAAADgSyD4AgAAAKCSBF8AAAAAVJLgCwAAAIBKEnwBAAAAUEmCLwAAAAAqSfAFAAAAQCUJvgAAAACoJMEXAAAAAJUk+AIAAACgkgRfAAAAAFSS4AsAAACAShJ8AQAAAFBJgi8AAAAAKknwBQAAAEAlCb4AAAAAqCTBFwAAAACVJPgCAAAAoJIEXwAAAABUkuALAAAAgEoSfAEAAABQSYIvAAAAACpJ8AUAAABAJQm+AAAAAKgkwRcAAAAAlST4AgAAAKCSBF8AAAAAVJLgCwAAAIBKEnwBAAAAUEmCLwAAAAAqSfAFAAAAQCUJvgAAAACoJMEXAAAAAJUk+Jry008/xR/90R/FysqKpn2R7cGDB/G3f/u35Tv6y/fXf/3X8T/8D//D3H3VtC+h/fN//s/Ld3M1rK+vz91PTfsS2j/4B/8g3r59W76bv3y/+93v8n2at6+a9iW0P/7jP46/+7u/K9/RX76//Mu/nLufmvYltP/+v//vo9PplO/mahF8Tfm//q//K/8SAV+qT58+xW9/+9vy3pdvb2+vUl+I+Pn59a9/Xd768qWfL+lzEr5U6Q+c/8f/8X+U9758KcRL+wRfqvSdtUq/e6XvrfCl+v3vf1+pz8hxgq8Fvv322zg5OdG0L6ql921V/fjjj3P3WdPuc/vqq6/Kd3C1PH78eO7+atp9bu/fvy/fwdXz6tWrufusafe5PX/+vHwHV8+8/dW0+96qTPAFAAAAQCUJvgAAAACoJMEXAAAAAJUk+AIAAACgkgRfAAAAAFSS4AsAAACAShJ8AQAAAFBJgi8AAAAAKknwBQAAAEAlCb4AAAAAqCTBFwAAAACVJPgCAAAAoJIEXwAAAABUkuALAAAAgEoSfAEAAABQSYIvAAAAACpJ8AUAAABAJQm+AAAAAKgkwRcAAAAAlST4AgAAAKCSBF8AAAAAVJLgCwAAAIBKEnwBAAAAUEmCLwAAAAAqSfAFAAAAQCUJvgAAAACoJMEXAAAAAJUk+AIAAACgkgRfAAAAAFSS4AsAAACAShJ8AQAAAFBJgi8AAAAAKknwBQAAAEAlCb4AAAAAqCTBFwAAAACVJPgCAAAAoJIEXwAAAABUkuALAAAAgEoSfAEAAABQSYIvAAAAACpJ8MXNGPaj3x+Wd+634fDL2E6+bOe/z4bZ4+XNe2yYn9f9bGtv0zD63dteJ5SyE/O65+YwO2e+kI9DuDPpPJl7mmSfO93rnED5OXze87PPmHSO3sBJOux3o91uX297P5fsGOT7ed0faFTfLZ4zlZefd9nPBd9j7yXB189C8QMt/dDqZh/Q7bW1WFlZyVu7X86yyDIn77Aba/VmNJu7cdHiFsu2r9v+/L8sZNu6Ua/H2lp34T4Nu8XxWev6kcVV9WO3fJ/NvKezL/XttXrU69n7vZx0M7Ll5uf1WtzUW3ewm87rnXg3tbxRIHZRu/xmDKObHZvmVjM2nH98Ftl7rL224DMge2zjuudmdu43s/OmfnPnYTL+S8nMZ1T6fB9fV/Y51167wi/j/XZ2XNayz/wb3HCYqzhP6tn7bfp9Ony3E1vNeqxk7+HLn4ejc/ic76PDd7GTztGdd3N+BlzSxzexv78fH6JWTrhHBrvZ53e2n7uDcgLM8/nPmfSZlX+2TKwgfRZnv5Mu1eZ8l75lRci9xHbUBvG2uRX7W2/DmXf/CL6+WGWINdOKHy55K8OtlZX0Ay37ZTL7obWVfUDvHx1lz29Eo9GI453sy/E5J/Ewfahnv4TWzwmKorYZB51GdmM/dq78hTn7QbG1f+O/LEwbvnsTae/j2ZOFX1NqD1fLW3BF/bfZ2RD5e60+/UarrcfT/C122fNlyUqUxrN4cs538PQL9HVPsSIQu6jNBmYXq8XmQSf76ZQdu62Nz/qzgJ+LOe/346Pic2BGLa7747/fbubnfqt3GJs39Ltw+qUhfYaPfmkYfUatPixWMHy3kX12jv0ha/Ah+5zfj623l/zaXX+UnXhHcVzeLVzml5N7WvnC/VN+RsbRajxcHz9RhvHuTXF2tl7uxXp+6zNZfVh8D8z/GJV9V77wL8HL67dH37/Pb4tWuezzl/kDbeNRvbwF13SNc+Yo/91z3CA+pN9Jl2pv4mP5rGnnnyvpd8rRH4Uv0ebtVx5yT25H/kfg9J16okU8Sl9is0/Sj9nn4cRj6Y/CPiLvlODri5V9kB3P+eFQfmNNP2COsl8fW61O9Hq9rA1iMMjayUmc5O0wDg9T2zvny3k/drfSD6pGdA42FwZFSe3Js2g0WvHsYTnhssovQY3OwZztWfKH1oU/gEf704qXpysplj2vMmf0SwVcVv9t/pU+++I+/7xZ3x6FO8tXSfbbKcCe874/bcUv3NlCoz738aKlX6Bvppoq+7kw+rky1XqtcparqG3Gy+z5jdazuOqPEygM8wrCeqocWfSWH/9SmrVTU9OXOmP67WgWp34c74z9EWphW66ipbZ5EOlvS/vNeX8YKoOCRie2y5Rg+LH4ItB6ehOxwdkvJ8fHx+e0Yp43i347gTGjz8hGZ3sy3OrvRvG18+z9/NmlD+m0zv3mFSv9GzE/W2pkn2Ot7Hv4nNbIfzO+UPpevezz81+qr1RpDZd07XMmWY+9Od8fi9bL3uPlbNk50Buc84ekR7Pnxdl5U36PzKanYo+Jls+ZnPfY+fI/AmffqdP36rPWLH6GZQcoVa5OPNZsxs7l/yLMTTq5pOfPn5+kp71//76cUi2vXr3K9+/bb78tp9xng+y/OQadk+ykzfcjWr358yyj18qX0ehMLqHXapxkPxgu1bLNOFf2i3K2rtbJ/Nl6J9nvwdnj2XJarTmtcbqv55q3P+W0ieeW0y5a3H2U3rdp29P7uCoeP36c79OPP/5YTrnnRudfo3PuuZfOo1Zn+fMz+yJw0uullp33gznt9P2dLXPe46fPz9qilY7Oh3z7y/NqohXnaHG+Nk6mfjScOvfxbB3zfkZcpbUWbcA98tVXX+XHrirSeZj2J52XX4JBZ/Q+Hr0fByedRnY/Pz/L26fv73PahR8IF31OnbXse3W+zOnP1nOlnyuNVrEPY59Ro/N+8iMsLX/R5+k5yp9dk9tV7tdF+z/3ufdP+u6ajlf6LlsVX9zn/ul31OnPiLPz8erfv0bLOO/9P+c9vXCb5jn7XO3lP1+y54x9LicXnoNzzttxxfPPOQ7l88/Ot9F+j23/zDz3UxV/r/yyPvc//zkz+hxe7rw++zlw6ffuBefVuMtt02j+2Z9Zo/M+fcce/zmQt072ed/qZN+5x6aVz7zP0nH5Ur7jLSPtTzonExVfX7TanGqS1Fd7Kw/iG61eDPbWJ+YZdtvRXqrOMlvOTvqL3Fl1VCrpnPvMVF2Wp9tXNOxGWtXZX/7SX9jzG5Maz2J7by/2ptv2syXS+dH+NOLZWD+w4i/jjejc2p8Wqbr+bnH+5dVe+Vg78yo91mIne+sdv9mJjTmP5a092b24VluP9fXUsvO+NqeV86Vq0LmPnz4/a7M/OAr1R5GqRDupSvTlanleNaLVye53Otljj1KtaTZbeuQo3uzOdnVKLe3befKK1Ov80Ciff8FqIGqbh5F+i0zv1w8zPf9q8eTlWEV01vJZs8+97Ivq2V+f0/mwfV53odTto6y4zNZz/Gh79nNq1J7mb9/0gRcHi8utz2Sfu91uP/qDh/Hy5dN4OMhulxVdxx/7MYineVX302wb0nzD7N+8mKZRnKtw35wOOdF6OVnFMar2yuw351csT7Rzq/xTN6OiAiq1bvruO/WZOiEfsqMVnfMqS0rD7sZpBUcz3+Dxyo676qJ//W7a/Nx9vnNmeUWVdjqtGp1BHN7cgmcMPuQfxAuqNZc1+n49iN2NZvZzYDcGY9+7Bx/242h/K3beZXOOppfP5I7k8dclqPi6z8b/WjadKQ+y7/6jv3yn1P78apTZvxSVaf/oL85jTlPwhWUk55v5y9joL8en2zha94JtHv3V4ZzYfvav/snZ8UrVLaeVJPl8xbzj1SWp3fcKExVfd+z0L2DlX5HG7l/03ppuC9/vmdFfgy/VLqhAm1H+DJg8Zwpn59N5bcFfAUfLXfbPbPN8IX/JTlR83Q/pL63lreLn/oLzYebz6EJjf53O3tPZ7wGnt2eWf/rz4BLLH/sZcmFL+3R63i5qk+flZAX32Tyjaa3e2V/60zFc2HrFdt73c1LF1x0b/0yceK+Mn0djVZFT1ZITbe57bex73UwbnXfnf6ccVUcveien93qnrJ7u5N+ri+rt/H4nVXfM/hwpKj/Gvj+X5+mij8HRZ/zo8dH902M25zOwmGfs/P5CPidVfN21WzhnlqquGvsZcNX37AXn1ZkLfq+cY37F15mz34XLCaf7c5nvE/dDOoYqvrjXhulqTCspJW9EdlLG3nhJRz4IYT2a+ylCb2TfXwdxsnfOmF3pKo1poJKxv0gPuzvlX7MfTQ2cPRqI9OhqV7WZqfbKJpV/DTyKchDFaxuN7TVl7K+LowqSYmy0kbFpZVNhwnlG1V6naptxmI+pd1KMqZd9M03SWHbFGHuL28nh+ePqZUspKrHyMfzOa8V4YpczqpAckw/iWd7OFT9r0r5Nt3I34d5If2nNPyfLvybfjLG/Trd6cbi3Hpt7RdXY0f7kRWHyddfTz4d03uwtP2h3+qv6afXZ2LgnmfRZXkwv28FmRFkNNjm2UDlmSfr8v+rYeWl/RuOUzGvNqZ99MMfMZ2QpVVHl52X63rm3Fy/z6qVGPNueUzU5audWg8wbg3J03tXLwacjBulzrZuu1raWfYcuKsnSGD3NncWD1dXWN2OzrJ5+8qiY9uhJcX9zc3NBRfVx9jNhf07V6eUYe5bP5ybPmeJK/akHQLffj3cfiqmpSrmYPjWucvl7av5Z+pkrvXKji2uMBus/R7+8aNxG/gPqKLY20v10Ybi0zcVj+ePlRTnenI7vOfqusR87Y/Ol5srJd0fw9aVLIVX6odPcP/0y8SY/Kc/aSvYDaf+o+CV5kP1CPRGKTUsncv7lPHP05rQbVr34RjIzyP3oy0r6QZV95z+VD7JZ3j5P8SVocrD50QD0vfEFlgbTAw6ndu4XifSLyagLyqRicNU5v7yXv7W3elPTs/bZfxjz5Rob2PqLNx4KJ4Ps50z6YrNxTtn7stb3ii9Ue/XZc3nZVi+WsVRXMX7msi/g5Rf09DmZPlsaE0lw9hkxdjXk4hzej2Z5P28Lu3vUYvNwEKmrZAq9RtPW91L4m60kv9BE9iU3W37xGX3BIL0LFF0kstNwN32WZ3vQGiXLqXvFRuwORl0rRn+Iyj5TxwOC7WfF7Ksvs/uTv5iv740F7uUVVceD+dPdSkMnTPxC1Mu7P0//ouScZKHyD50zsunFL5Wz3zGvpT46L7KW3R1kn2PpCqVra2XIlp2fzfS5trUV+9mJdZT9YEiBcSf7rty7ye04dd1uVfCZ3eA58/FNccGTrWYzttIHV+ZoKz03TT+7OmLxR6Hisy39AengSTZt3ve+1MrnTMj/oFV+VpdfwtOFYEbT5vWIPr24xmVOyPJ7w8TXh5HV1ex/6Y9M6d9RO/vj0+m0cnbuUPbL/KXo6njfjEopx7om5GXgY12RGq3Fg1nPUZRLjy+zuD9TejoqWZ8qFT3tanFhCWlZajqnTa5r8XwTbU5t62mXrOyxYr/KMtXRts+rh126VPb+0dXxrpydh53OOe+fG+p6cHaOXqItXdI9Ot9G535xzozWmfbrWl0dT51XXn9++5LOTV0d70r2/ho7T4oBZsvp6X13ej6k+c4+P+e2i4YGmGv6/T07TMDS0qC55bLynx2nn1GjdZTn2uizd7prRfl5d+HPnbnzlT8Ppk+6ZZd5z+jqeFfOzod0TuX/5u+dsfNk7D028X3tUqbOiZHRd768jT6/snlS96xrvIUXdX8qtv/sPJzZnwu+Z45/3s67P3r++Pm3aB33/RzV1fGufaZzJu8GX94svzMW79+ie/zZepdvc9/Lp5972Wf16bzps7u4PXuOnf1OmS8v+3xtZT+TLjpNFp3rVZSOja6O3FPpL86pGunsr7bbTyOO83S97NZ4uFf+hbf4y/dK+gv0OQPcr+9lz8krnNLyXsZqHtSPV2VlTivDWtGb6pJVW98rujqlv3afO/joejxN86XLzqa/Foy6ZC0a9DebLx90e7plv93kz5tx9tfv6eqx0wHIb+Ry7/zc9dtlSXMarPecfkTFxRTSqVE/G6B3pq0tOTjuvLL0ea2XnQHL67eLCslU9VF0Nyms7xXLOX57dk6nv/SN/qI13rIvHEt5+Gz+Od0p+3M18p8LU49l57u/mnOx7LMx+4BJlzXvDU7icKrSqZC6Y7yLh+NVT/PaeUMDTEkXgUkVZCv50ANpSro8evp3P7bq2fm91o52Gqx+0V+vp4z+Gp6WlX1Jn6o6Tp//6bxM3S+60S3/ip0PUjy+8MGH/PPuUt2kym4cC38W1R766zVLm+jKOP7Bkr+HB9nP/HlV/osvoHLprkK1J3GQPi/L77b5d9Skvh618rQY9lP3qwuWm50Xo8G/Uxt14frwbmz6wmWsxvV6KqoY4xZd95zJK8fK2xOKirL0b35BhuwDMv/emD9WVJCl7vnF3eKx0d25n2HZ75ynv7OWG9nqpc/uNC0N/ZNPOnU2dE9p8Db2j7LP0Hp7qZ5Kk7LPybnf4xe0c38n5lak9OsyVHzdY3lqXabYp3/dnjKW4C/zV6DiL0hTiflpup6mD/IBDYvWOcm+vOQVZ9nPqrF5yuddYHGaXqbziypWRvs0d0XZ9pVPKvblbPmD9NeI4uakC/4Sd5+p+Loj2Xsm+wW7+OvuOe+fs0qpsWqSsTZ67KJTc3ReZl8Qzgb6XdiyZaflLlHxdbp95bzzzplkevq0ix6/yORfB79sKr7un0H+eZUGZC8/y67yRsvOhfxzrzN2jo23dCGYsQ/hNCD26PN5pp3+DJh3jk7/NTpbbydbVnZuny4/fZaNPgfTcrJ/Jz7fl/1MG1tGsV2pSm3sr+On25laMW3uz7IrVcjdDhVfd+D0PVS+j8v343nfQUefcYva9HPTZ8bo/Xc63/h7curcmv2MGatIO2e7zj7Dz2nZQovtn674GqvEvOCcHO3/6PGZz9Q5x3CZee4jFV9347bOmWT2udOmfs8r37ujz+aLn1+64Lw6XU/ZRts9Ot/O+y5QbMP099rRdqfP49HvwvNa8dl638/FkXQsVHxxP6W/Gve70V5bORvLq5fGG5k/wOb/v737940jqwMAPunouJIySPYJnU6C8uQUHB12mlQRXbjG0NlNCqRIgGQJpDROR9xw6dBVoUhCx1HEdyVFFKHY0sFfAOV14X3fvNmd3Z3ZH44d7859PtKT7Nnd2R+aN+/Nd977vvMqIvj1yKoYdXJrXvS5ycew/3wyYr79UYnMxzzq7Wpvb6+Uw+rwpJ7THQl867vc9VzrxTfnSm6v6eWt39lWT6LRuBlRz2GHd7b7uHoZIyvLv4vUd6Omy4MyMmv5u8Knr15VrxaW0zzaY7HzGBiS9OdZqe/StZy1ci+0ytLSc+cMPoUrsZUTU6fzfzM6+eRoyVGWY+fP7tXtXs5XEnUs7lSXnFdx9zmdDw5ajU8kxH5c7kCfxejF4/qudm4ny+Ip1d3bHfVuN72ulRfsxcOcX+VVdWe8/6iXZVGY/QcP8kis01YW7Xqk6YLRIlEXH9b7iM8Toy3P4juMPlDT6sOKttIxnCra/vGTFft3HTlYS+nKt1ovQpRelSpVLu3t5e/GVh5qEsm2S8U/f1bVuamnZjdM2br9ZGJEdc7lF5+zPfr6/nRP4Lxec2Lno8qALdbJ+6gzSynJ5ndKG9jMjrjsWTnNaK/4rm3NjIZYxOVig7I+qj7sWvRlVIyQXhcCXxvs/FEkrk8Vau8wJwVsvDq6Vyf16xhmmStga/WlWHkqhl7O9vnPq0f3ylTGUdQrLmrjuberu+mksZ+Ho9bDU3MnOXcC4nlx4RwX8nWC3/3nizo76b1yAvquoe5XId5vnPhwpnQkR5wsl5Dgm++ks9dR8y5rukJTzxaVZac6RlLul6keL3txclod7rUb9nEpVWixs3QRn6d/qVNcvmZVqXnl6avUgu18XL3um1LVKu3g2NbBg+r4+LiKxPZnb+vphqcnh3Wd6Gh722V7FDCrqrtPmov5npWszmP1rPFnuDXKDv50YvvD13er56kNfrxbUgicPC3TNpop/z0B9WZqZq63dc9gJ0+p3K2DcOdv8mrGsyvR1ueVzhVqV5gaynfE7qJVGC/H7E2lJ9Xx5DVubfdOPn6bAHGzmnh7hfFOccO0VaIdzHUrAumj7fmZLWdVbvqXWEGuWwmcwRW48jqzULomy+3aTnX3dl1DpvvKl9J3Hi2isV89mJhuHergfDjZu8CUx5z0f7YvPC51ChGun8DXBtu6fTedBpImUh+5storSuQ7UfXjdQ6tdok7UyWn1sleda/do8+5PdrLsDYd9qi8T6uz1KofpJNjvVpUWcu52i6dgElxIb1oFcnxcvBpX+VCpQkyTdyFP/2ietjq6I9Kc5d6JbN3M5Z10dfxXdd0XheM6Fr6rnDkJJi8oO4uqzW47Xoc+f66AmH19kVlcQBttLJO50iXCOJ31PcoeSnp8iTo87oegTy3xO3u047tHaU1iCrZrQ4ODuqRY2VLOpJHN4TaN4Y6t+cH2ueCnspy9nriM8THDaetbbmkc8t2qbvbed35Js9Xuejev9N5cfLiYVlxayeCeKVPAIO3XeVqkgPE49XEVxu50rTpr6qn84Yul+BxatBS+xU5kfLW3G9fTqnDi/oOcKUuo850aFYR37lb1XGvF1W96H7z/8XVOcjyX2UwRwT6HncH6nbvl4DfSbW36rCvaD87+8FNWfYGNFdN4GuTbR1UL+NO8ShK31q+vCxhnutwLGF+EFM72iXuSqXXx/DzmBo5ceJKjXRuZGunp3VgLTrrx8+nIvslae7FvSlDZaMjf1jugjed++mI/OlkR39UVv0EZUGA0e82VUrUv3s62sv0OnezuYjSee0LbDWd4xX0JZefLOPh66ur72DPiov91JiXx/vKfKVzM6fjdNoXkDhd9Zfiu2j3cTOaaracNbe0y8Xn/vPu57XLwgHJqaN+v90GP75f3Y3dz2x/PLFwxFy7j0ty4eYzT03/Kjew2sHj+qbYaXX4MHXemykkPbfKd+8/z9O0ol3b7XrKKDF+2tXECLqjfL46/eJha1sqItJshK3qdq6ccXO3WdBlxZEro6leqW+6t13dah379bmnvsBuRsZEx/bk5IvU681PyP3JpSY5NH2Dqb5D9MtNn+L9uYQ6k8TMoUjPU8eW0t95ikDMYCjXVqXNuvgIyYgx38qznrb36vo2XoBqKnXPhHRt+KTc/Hn1pprbkkVqAHk6NpLA1yDEVIWu6Ypd4rmtaUUx/Hx6RNbW7epBTOE4a6/uWI/waucsaVtptai29F71tMkyZWTUoY/3bOcXSXaORxcAE6UZuQbrrOm8LmrMOx/vyqG1U929c7+6f39RqXP+hLPWPka76RIjMR+1VuuJ6VYxCrO5C5b+j5Xm9u7NTlHMU7BvLDFUvOnc9IxECf3BiFbOI1hJvbrxduoF76RO8NsyraNresOLX93oSQXQb7KOjYeITW5fZY/RHQ/deTDrFYrHU0SyrYPqQdy/OTkqUyOnHm/b2u1t10M7P9ibL+rAc507MDZHUL3JJViC0pPD4uAdzFnVsTVy6qKaWRP5RmvfauJzNAGtmFEREyzyas0z0/ZLvU37P15hyEcTtI+L9NGUsvbI6CZwpiHkPXrXOnOyFyl39ur0PG+iX9kE0JoZAuNpj8f3p3uGfdP1IwgVKQFS37Pk2cg5ynZisMaD6sNnt0r6jSXS6aS288nzyG/ZN8ChzLTY3q72jp6N6/qSUx3buTe5JunEuhKrOq6bs/FqFDvH4xVjwsxqh63nzqxMcTH1/sb7mv7/ckyt9jFt7qqOY0t/toWrgqwvqzqugZ7jp1mVpndVlznH8bjeXmLpq09hakWdrnPJcVnNZ/LjjrfP3X/7ealM/yZLr+CzAazquD7aKytOHHOj1QybY7bdru53r5A8YXKlqOVLa5W3BZo6EW1YrJoYKzqOVnLsqihNHe57vEvZX/u3qX+H+JylzvbW6/o36D2/rQmrOq6BcmzOO1YWt3mTfblx+zq7mlqu813HbVN/0r5Wb2uaOt/U4XbbN67XzfeI71r/vWr/uHmf8rr0mfc7V01t3r+1/yV+53VgVcfrcfV1JlZOHre5dUmvy+/X7Ce9f3tHTbs18d7Nsd3VXk72JZv9lwXIR99xol6EpetGqrexcvO898irKo9XiY59xv+j+p7b6lLql6y9+B5WdWQtxfDNepTocfX8ycGCIaeRvLpZhaaOWreHZs8VEfVHkXur9Zpm1cdLmIfdZdW74rC+mnwIc0ZezJk2vP3RfkeevouX41hR7u6HZe+zRrm3ejOJjoeEnzxt3+GOacQll8Hp4WTuwLYmp0PaQ5yO8gqzpkhxRZqVj/NCMPmonRqlXKb9xzG7fetX6bnRrqZj8zimAD7uXRl4Rr7D3K5rx/n4nt2e6mD9MZa2dfAyrwaZR400SfS365wlsauZ2lMSEYeLr4xVpiPPGZUJV2dqWm+79OSQPD1sVhlvyuTiTyMx3arUn+gPnzydHO95/mL+SM/R6nCjqV6ttu/jur68+FUZaTJnZEy9YFS/5n3qkZ51nqKTVP/jPDU54q2k8DAamhVdTZ1Jz4280M2+chsYs4hilOLuaFp9jLp+2YzCiv2XEVv7D5ZNKZOO+wf7aT8xS6k+/mP/TaaN3G5Gf/f5xetFHulcvkM9E2rqPUpqj7M6MVnu40+k+thupQApm7g+Al8bK6Zr3Bg1qjEsc7nOeVm5rfS68wXn9FSOmIqRTmCPIp/HrZi2VIZ1HkburZ2YiZXVUyzS2/ckpq7Fye9WzvvR27jH+6UTXs4fEtOpSlLu7XutYaSwwSY7r3lTr65g09bB4448fbvVdvWmenp0VB292Z55bHf7TXWUOjFHR0/TsyYfPyj76/4oTcLeOUG6EEPCoxPQrOAW0yEfxblkt3pcph/H+aWZHTnW6tykzsjjuFhIT67PRe8+fQVq6SIxXXjWeT6i872Tjrd0vD4puS+LCIqlwzZPHcrtYuSVS889PrvINKKPqtutera7eztt6dq+W5WV4VeylV53kNrvl2/PJgJnsTpzrCQ5qmtxAVGmkISYXjJbD5ewID8YXJv2hWVLrDDeDjB3LthQpurX3ef0nBxM3mvVkfPq2VGqU32rDafX59XhZgJa0fadVWePt0vQK3rI6WK5d9pUep978T7TQaza+Ytf5SnZ0RbX074iuFVWT0/nqb3tqQWg4AKups7sVvejkcrBorf5BtLElPq42ZTqykTQq+w/NdTL5b5rxLTf1A/tuwbO/edV9jchAmvp+5bvsNtz3kkVvlyPLxoIIjfYdRP42kS5Uzse6dU7F3nOCJL67nF9P/j05KiKHLiNFw8jSr9XHUai+ZjIHTm40onurImmp7NL5PGpr10XrOiR8xqdVidfPCsb2s6rR7FiZJn/nBPbN+8X0fsHt9NT5gTMuuQgWvkbrkGdE6el6SSPOq/dZl43R50c9Fa5oE/7fv1spuMc6YU+juv41EGO0SE3cgB6/t3lbGaFnX4Td7Vi9bnD1PGJnlAExcqVedwVHL9n1Pnpzk26WEid+TrmEHkSbpTOfuQXTa/NdbqrvEgdiFTUdzptVbfvfJxan9J+lbar8erpeBTYYblzXd8djuM2RkRHTrtWnrulvK6exTE5Ks/Slq7tL0pweXURqLt1o07UmwN5efRLBI+PqxjYFRfL+QIlPb4TI9ZKEDqCXwtHVU70GVJd7coP1re6ckl2D4us0tat6uMPJwPMu7sf1jkuT19XkV3nPGYuNCMlU/14GTeUHtcjtU72UhuZGpTzR/fKiOQO+QK9fn33qJSz6mHun+dnpAvmdLFcP9ChLHgTZWJHJQ9h6wbRuJsdN6/f1oGHcp4S/OJdXFWdifZ07ojp0n/MbVoT9Ipr2lEwrPT1Up80LyKx9Irnlyx+k77vEHU18trmuprqe5Ogv8/5s+oo+uO3Ut+ibOI9S52mlcjxtQ7K3OH9yLoxZTT/elzmzmF+vj87TztyCOzs1/OSy6a23jnTSf5c8Vh6/f7+eF5032fI+9qZnC89drl5U+rPNvuZZ2xIXoQucnxdv6Z+5Hp11jqGOxIiRE6AnXT877TyB3Q8rahzDbSfG7l+UjWdL+caaOpsed2cY7upw5PPGX+PnajXHaU574w//9nb41Svx9q5GLrraP17NM9ZpixRn6+ZHF/rZdRGleNnv6udi3o7cxymY7b3WLvctmpG1OGo+83ruvKO5c88bpvje42UNq3vtXHOmjkHNa8ZVehx/a3PWdOlPLbmFVKOr+s36kP2N3alnq5yfq9z6PSaqNNT9SN09J1nP15rH9MPpv0ft9vZjvxIo+89t388mbNoflud6t3M43V7n+vkEvtYB3J8XZf3UWfmmeqbTtWZybb6ko/jd7nOS7/L8+O4Tm5/9tl2ddSXTj/K85I/7bj5Tqv9UO9dfMah5vgS+JqyGYGv+doni7gwvsRTxbjh7uuQdJwIuzoAy0kdgKmL6+VK9/st25FqvuO6dxa6CHxdv8njp+nE9l3gTl4wTyT5nDaqWyVQXDYvbdQxn3+xXScj3Z+pJ2c56NZc5PaUiUDXrBzYWqIO5gv99Dnq+t/xPqNyuee3qyDwtWZyh3fJOhR1pgSb57cHpR6n4/F5OnbjYmJRWfrCPi4+cr2P/dc3pGa1glJ9bX5z/uiqM6PAWKpT6RxUP14H28ZVurxHb50rn3PNO/QCX9fvagJfC4yO/46gcSM9p77Q77jIH6n7pbOfvKmDcW7peW1n/7hvX/M+wwKj+lyXNa+SAl/r6tLqzBzzAlCd7dIlmfe+C7X77fX37tzLVD0cl0s8r12R+JwCX4XA1wbIHevy91WIC9I1r7SdygXHYuXipPy3SQS+1kDcDYq7O6MDaH59PEvPXe64ZBMJfH0XpDqe7+guX4/PynliqVfEcxc+8SwH3eaa064t8zkWfscNaDcFvtbAqI3sPxrzSmrLjGhexZUfn/Pb+pH4HLmU/y9b+n2P47dLP97Vft/LIfC1xq68zuS3eP/Sm84/B80XN4iXe21T11ulPLLOhtbHi+/TBL7k+BqiWDli7iTjd7R7sJmrxuTfZZkPbvUN3sFWyZMwOoDm18dIWL3ccQmsp1THc26U5evxVjlPLPWKeO7CJ271J95tzGnXlvkcC7+jdpNljNrI/qNxNxJSz0lYfSFXfnzOb+tH4nPkUv6/bOn3PYjfLv14V/t9GbwrrzP5Ld6/9Kbzz0HzbaXr4OVe29T1VimPcD0EvgAAAAAYJIEvAAAAAAZJ4AsAAACAQRL4AgAAAGCQBL4AAAAAGCSBLwAAAAAGSeALAAAAgEES+AIAAABgkAS+AAAAABgkgS8AAAAABkngCwAAAIBBEvgCAAAAYJAEvgAAAAAYJIEvAAAAAAZJ4AsAAACAQRL4AgAAAGCQBL4AAAAAGCSBLwAAAAAGSeALAAAAgEES+AIAAABgkAS+AAAAABgkgS8AAAAABkngCwAAAIBBEvgCAAAAYJAEvgAAAAAYJIEvAAAAAAZJ4AsAAACAQRL4AgAAAGCQBL4AAAAAGCSBLwAAAAAGSeALAAAAgEES+AIAAABgkAS+AAAAABgkgS8AAAAABkngCwAAAIBBEvgCAAAAYJAEvgAAAAAYJIEvAAAAAAZJ4AsAAACAQbrxNil/L+Wzzz6rPv/88+rvf/979emnn5atwxHfLb5jfLef/vSnZStshn/84x/Vl19+Wf35z3+ufvnLX5atm+1nP/tZ/k6Hh4fV97///bIVNsOjR4+q//3vf9WKTe3a+ve//1398Ic/rG7evFndu3evbIXN8J///Cf386J9jHZyCH73u99Vv//976s7d+5UP/7xj8tW2Ax//etfq3/+85+Duq6MNjLayt/+9rdlC2yOaE+iLkadHIIbN27kPus333xTRWd8JamzEL33t+nHKFuG5cWLF/n7Kcoml9ShL0f05vvFL37R+R0VZVPK9773vXI0b77//ve/nd9RUTap/PrXvy5H9Ob7wx/+0PkdFWWTyldffVWO6M33ox/9qPM7KsqmlE8//bQczZsvvs/Nmzfz30Z8dTg+Ps536GETpYvsKnXqqw8++KBs2Wxx1yzOObCpPvnkk+rnP/95+W/z/eUvf6n+9a9/lf9g80Qb+YMf/KD8t9miv/qnP/2p+vbbb8sW2CxRF6NODsXXX39d/e1vfyv/weaJPmv0XYegPeJL4AsAAACAwWgHviS3BwAAAGCQBL4AAAAAGCSBLwAAAAAGSeALAAAAgEES+AIAAABgkAS+AAAAABgkgS8AAAAABkngCwAAAIBBEvgCAAAAYJAEvgAAAAAYJIEvAAAAAAZJ4AsAAACAQRL4AgAAAGCQBL4AAAAAGCSBLwAAAAAGSeALAAAAgEES+AIAAABgkAS+AAAAABgkgS8AAAAABkngCwAAAIBBEvgCAAAAYJAEvgAAAAAYJIEvAAAAAAZJ4AsAAACAQRL4AgAAAGCQBL4AAAAAGCSBLwAAAAAGSeALAAAAgEES+AIAAABgkAS+AAAAABgkgS8AAAAABkngCwAAAIBBEvgCAAAAYJAEvgAAAAAYJIEvAAAAAAZJ4AsAAACAQRL4AgAAAGCQBL4AAAAAGCSBLwAAAAAGSeALAAAAgEES+AIAAABgkAS+AAAAABgkgS8AAAAABkngCwAAAIBBEvgCAAAAYJAEvgAAAAAYJIEvAAAAAAZJ4AsAAACAQRL4AgAAAGCQBL4AAAAAGKQbb5Py91I+++yz6vPPP69+8pOfVB988EHZCgAAAADX78svv6xu3rxZffPNN6sHvv74xz9Wv/nNb8p/AAAAALBePvnkk+qrr75aPfAVvv766+rbb78t/wEAAADA+mhmKl4o8AUAAAAA662q/g/wU1ho/cz1PgAAAABJRU5ErkJggg==;" parent="1" vertex="1">
          <mxGeometry x="110" y="140" width="804" height="625.19" as="geometry" />
        </mxCell>
      </root>
    </mxGraphModel>
  </diagram>
</mxfile>
